<?xml version="1.0" encoding="UTF-8"?>
<!DOCTYPE svg PUBLIC "-//W3C//DTD SVG 1.1//EN" "http://www.w3.org/Graphics/SVG/1.1/DTD/svg11.dtd">
<!-- Creator: CorelDRAW 2019 (64-Bit) -->
<svg xmlns="http://www.w3.org/2000/svg" xml:space="preserve" width="43.998mm" height="14.592mm" version="1.1" style="shape-rendering:geometricPrecision; text-rendering:geometricPrecision; image-rendering:optimizeQuality; fill-rule:evenodd; clip-rule:evenodd"
viewBox="0 0 4399.8 1459.2"
 xmlns:xlink="http://www.w3.org/1999/xlink">
 <defs>
  <style type="text/css">
   <![CDATA[
    .fil3 {fill:#393583}
    .fil5 {fill:#829949}
    .fil4 {fill:#AE7A35}
    .fil6 {fill:#C5C6C6}
    .fil2 {fill:#E22229}
    .fil0 {fill:#F3A610}
    .fil1 {fill:#FEFEFE}
    .fil7 {fill:#FEFEFE;fill-rule:nonzero}
   ]]>
  </style>
 </defs>
 <g id="Layer_x0020_1">
  <metadata id="CorelCorpID_0Corel-Layer"/>
  <path id="_217244224" class="fil0" d="M317.43 840.16c-10.97,-85.66 60.47,-153.41 143.87,-161.56 94.06,-9.19 170.97,54.41 179.12,128.66 9.56,86.66 -59.44,153.25 -142.84,161.91 -95.28,9.91 -170.5,-53.56 -180.16,-129l0 0 0.01 -0.01zm630.44 -82.78l10.44 0.03c-2.06,7.09 -6.5,13.41 -8.16,19.25 -3.34,11.87 7,9.91 3.25,19.25 -1.37,3.31 -8,13.25 -10.47,17.37 -3.91,6.66 -7.34,11.97 -10.88,18.16 -22.09,38.5 -42.94,62.91 -72.72,96.06 -4.5,4.97 -8.63,9.81 -13.16,14.87 -4.88,5.41 -9.69,9.69 -14.28,15.16l-27.84 29.56c-8.97,8.69 -18.22,20.25 -27.47,29.97 -11.09,11.66 -87,95.16 -97.19,101.97 -6.44,4.31 -12.28,6.47 -18.94,10.97 -18.5,12.56 -9.56,3.5 -19.97,8.72 -3.31,1.66 -4.66,3.28 -8.5,5.09l-30.97 12.87c-9.56,3.94 -40.72,34.44 -62.12,14.16 -9.87,-9.37 -15.69,-26.94 -8.09,-41.78 13.5,-26.31 29.66,-48.66 49.06,-63.94 3.22,-2.56 3.56,-3.13 7.03,-6.37l24.5 -18.66 42.75 -42.94c20.37,-18.5 68.69,-72.78 85.44,-85.84l43.81 -41.97c21.53,-21.16 16.16,-13.31 31.09,-26.69l27.09 -30.28c17.84,-20.66 35.06,-43.78 51.56,-61.66 17.56,-19.06 36.34,-36.47 56.06,-58.91 4.44,-5.09 23.22,-25.78 29.59,-28.16 7.34,6.97 6.88,14.69 3.5,24.72 -3.22,9.56 -10.12,20.56 -11.47,24.37 -5.09,15 8.72,5.53 -9.37,23.12 -5.31,5.19 -3.28,2.03 -8.12,9.22 -4.81,7.19 -6.81,2.56 -5.5,12.28l0.03 0 0.02 0.03zm20.25 -435.91c-8.59,-84.78 63.38,-152.34 147.5,-158.69 95.06,-7.19 169.84,57.41 176.34,133.28 7.25,84.62 -63,152.06 -148.66,158.09 -94.22,6.59 -167.47,-57.03 -175.19,-132.69l0.01 0.01zm-352.28 -181.28c7.09,-2.91 9.37,-1.5 19.53,8.19 5.16,4.91 9.19,10.88 15.25,16.75l63.25 62.66c13.91,10.56 22.19,11.66 35.94,27.34 5.91,6.75 10.66,7.34 17.31,13.69l40.84 38.25c4.09,4.91 3.44,4.31 8.03,8.03 11.22,9.22 16.25,23.97 29.81,32.94 10.56,7 25.97,29.75 38.34,40.53 3.66,3.22 6.03,3.81 9.5,6.66l38.03 40.81c14.81,14.84 23.81,22.09 39.78,39.28 5.84,6.31 8.97,9 15.25,16.78 4.41,5.44 10.22,8.81 16.41,15.69 13.41,14.81 19.62,18.44 31.47,31.5 18.91,20.78 12.28,12.56 32.25,30.72 20.28,18.41 55.28,42.41 18.94,75.59 -25.91,23.66 -68.56,-7.13 -92.06,-21.22l-40.06 -23.75c-23.22,-14.66 -28.03,-58.63 -67.59,-87.94 -14.56,-10.78 -20.41,-23.75 -34.97,-35.91 -2.47,-2.06 -1.78,-1.81 -4.06,-3.97 -3.78,-3.63 -5.53,-3.72 -8.94,-7.22l-30.81 -33.28c-5.56,-5.13 -11.09,-9.03 -16.19,-14.69 -5.06,-5.59 -9.62,-12.06 -15.34,-16.72 -9.81,-7.97 -22.84,-22.22 -30.13,-32.66 -2.06,-2.97 -3.63,-6.63 -5.44,-9.09l-22.41 -25.59c-5.72,-5.16 -11.47,-9.5 -16.94,-15.28 -2.91,-3 -5.06,-4.44 -8.78,-7.34l-52.16 -57.37c-1.53,-4.06 -2.37,-17.47 -10.63,-34.91 -2.41,-5.06 -1.91,-7.13 -3.75,-11.87 -4.22,-10.97 -8.59,-10.06 -0.06,-22.41 4.75,-6.88 5.13,-16.66 -0.41,-22.97 -4.12,-4.69 -4.72,-0.59 -7.22,-8.69 -1.03,-3.34 -3.06,-8.97 -1.97,-12.56l-0.03 0.03 0.02 0zm-517.69 623.75c4.78,6.31 12.63,8.16 21.84,19.78 2.91,3.66 5.31,6.69 9.31,10.66 4.94,4.88 6.97,5.53 11.94,9.59 4.56,3.78 5.19,6.22 9.91,10.16 11.16,9.41 21.72,20.25 30.41,32.41 5.38,7.5 14,12.66 21.94,19.66l40.91 42.03c13.16,14.87 30.38,31.25 39.91,42.94l20.56 20.91c5.13,4.16 6.94,4.31 11.28,8.91 4.72,4.94 5.09,5.69 9.34,11.94 3.81,5.62 38.78,33.44 43.13,40 12.87,19.44 26.97,27.84 40.25,42.59 9.5,10.53 37.37,33.47 41.03,41.97 4.59,10.72 2.28,22.47 -2.94,31.44 -5.78,10 -11.97,12.84 -24.81,17.16 -12.81,4.28 -24.06,-0.09 -34.66,-3.84 -9,-3.19 -21.78,-9.5 -28.47,-13.87 -24.97,-16.31 -56.53,-29.59 -73.41,-52.22 -5.03,-6.78 -3.16,-10.12 -12.78,-27.84 -4.91,-9 -13.47,-14.44 -19.81,-21.63l-28.31 -33.03c-4.06,-3.91 -7.62,-6.31 -11.44,-10.06l-30.28 -31.22c-4.03,-3.69 -7.37,-6.03 -11.53,-9.97 -7.62,-7.22 -36.5,-39.13 -40.81,-41.66 0,4.81 0.97,5.66 1.34,9.81 0.31,3.44 0.09,7.84 0.06,11.37 -0.12,25.03 5.72,25.62 5.72,41.91l-0.03 47.09c-0.44,7.47 -2.78,13.41 -2.91,21.56 -0.59,45.16 -0.38,48 6.31,89.75 5.34,33.37 -7.87,51.94 -7.66,87 0.19,31.09 -6.22,32.81 -7.09,41.97 9.81,0 10.78,-0.81 18.94,-2.06 6.53,-0.97 13.84,-0.47 20.62,-0.47 38.12,0 88.03,-2.94 123.81,4.31 40.09,8.12 57.31,2.37 79.31,6.16 4.5,0.78 9.78,3.72 16.09,4.62 20.25,2.84 58.69,4.62 75.84,-3.91 4.28,-2.12 9.16,-5.16 13.87,-6.63 18.59,-5.72 57.47,-4.88 74.87,1.03 16.53,5.62 61.41,6.69 79.62,3.22 15.87,-3.03 17.75,-5.13 38.22,-5 63.47,0.28 38.88,5.78 66.84,17.41 13.37,5.56 19.66,4.09 37.75,4.22 16.59,0.09 23.72,-2.81 32.13,-10.5 8.88,-8.09 11.81,-13.75 21.53,-18.78 16.75,-8.66 49.63,-5.91 71.47,3.09 27.19,11.19 46,2.12 75.41,9.72 1.62,0.44 5.47,1.41 7.56,2.09 21.5,7.5 44.19,9.34 67.09,5.16 34.28,-6.25 14.5,-18.25 65.41,-18.72l39.91 -3.44c14.28,-2.09 11.62,-4.31 36.31,-5.53 44.03,-2.12 47.59,12.5 61.13,22.56 14.31,10.63 54.41,10.53 69.75,1.09 19.66,-12.06 11,-23.66 59.94,-23.69 34.41,0 36,21.25 62.12,21.69 27.06,0.44 66.34,7.34 72.38,-9.91 2.12,-6.19 1.13,-29.03 1.13,-38.44 0,-44.59 -12.94,-28.19 -12.75,-66.06 0.12,-32.09 -3.06,-41 -6.84,-71.44 -1.5,-12.12 -0.28,-24.19 -1.97,-36.37 -0.94,-6.59 -1.44,-9.12 -4.56,-14.97 -2.37,-4.37 -5.09,-10.16 -6.34,-14.62 -2.75,-10.06 -3.81,-38.72 2.75,-52.09 8.37,-16.97 32.31,-18.31 22.62,-74.97 -1.69,-9.87 -8.37,-17.16 -11.84,-27.5 -5.03,-15.16 -5.34,-35.22 -0.06,-51.91 2.41,-7.69 2.69,-7.59 6.25,-13.41 9.59,-15.62 6.25,-11.69 9.34,-31.03 2.78,-17.41 -0.97,-35.25 -7.34,-49.59 -7.16,-16.09 -6.22,-35.34 -6.22,-52.91 0,-14.47 -1.47,-24.25 -1.41,-38.09 0.03,-13.28 -2.69,-23.66 -0.59,-36.16 2.12,-12.47 -0.78,-25.94 0.78,-38.69 1.41,-10.97 1.03,-43.94 -1.84,-53.37 -4.75,-15.47 -14.09,-18.56 -13.91,-45.94 0.06,-13 -0.47,-26.94 4.25,-35.56 -3.69,0.81 -2.06,-0.44 -5.59,3.78 -16.81,19.75 -9,9.94 -23.41,24.72 -3.5,3.59 -6.03,7.25 -9.19,10.78 -6.53,7.37 -13.22,12.22 -19.59,19.28 -12.5,13.84 -23.75,28.81 -38.37,40.44 -10.84,8.59 -25.19,30.41 -37.41,41.41 -3.87,3.5 -7.44,5.06 -11.06,9.12 -4.19,4.69 -6.22,6.31 -10.16,9.91 -18.28,16.75 -49.31,37.22 -74.09,43.94 -23.66,6.44 -38,24.53 -53.81,26.75 -30.84,4.25 -39.06,-24.87 -36.31,-41.66 1.66,-10.16 10.84,-21.12 13.62,-25.94 6.5,-11.09 5.81,-15.25 14.94,-23.44l29.03 -28.53c8.91,-6.91 30.09,-18.56 35,-25.75 10.25,-15 23,-28.72 38.59,-40.25 8.37,-6.22 36.72,-38.03 39.22,-39.78 6.37,-4.5 15.53,-17.97 27.97,-29.47 4.56,-4.25 5.59,-6.06 9.53,-10.47 6.97,-7.78 23.28,-18.06 26.12,-22.28 2.34,-3.44 0.63,-3.31 3.84,-6.69 2.47,-2.59 7.62,-5.25 11.31,-8.94 3.16,-3.16 6.16,-6.78 9.16,-9.59l32.44 -27.97c6.37,-5.62 34,-35.41 36.47,-42.03l-1.19 -31.75c0,-34.12 -4.06,-33.47 9.5,-60.16 3.16,-6.28 6.09,-19.97 6.12,-28.81 0.03,-51.06 -9.66,-38 -14.03,-72.66 -0.59,-4.75 -0.25,-12.69 -0.22,-17.72 0.12,-10.88 4.31,-18.97 4.31,-30.47 -13.37,0 -54.16,5.66 -72.31,-1.03 -32.06,-11.84 -15.22,-12.78 -66.19,-12.97 -25.47,-0.09 -31.84,7.69 -70.62,7.66 -14.13,0 -24.69,-0.41 -36.19,-3.06 -11.34,-2.63 -16.41,-8.22 -30.41,-9.5 -8.41,-0.78 -30.78,-0.72 -39.41,-0.12 -15.44,1.03 -24,12.47 -34.91,21.97 -10.59,9.19 -34.84,9.69 -51.25,8.5 -16.78,-1.22 -23.91,-9.16 -33.72,-14.19 -18.37,-9.41 -36.84,-6.22 -62.44,-6.16 -14.25,0 -23.06,3.87 -36.66,3.87 -31.09,0 -45.84,1.13 -75.91,-3 -26.25,-3.56 -50.25,3.41 -73.22,-6.56 -10.16,-4.44 -14.72,-8.97 -28.97,-9.56 -40.72,-1.72 -40.69,-2.06 -67.81,10.19 -4.22,1.91 -8.88,4.41 -14.28,4.94 -18.69,1.91 -46.91,1.22 -57.59,2.88 -44.31,6.94 -148.59,-3.47 -173.06,3.22 -5.38,1.44 -8.94,4.03 -14.69,5.84 -2.03,0.66 -5.84,1.78 -7.41,2.25 -9.5,2.78 -15.12,0.25 -27.5,1.94l-174.66 4.41c-9.03,0 -11.16,-1.47 -18.34,-2.59 -28.81,-4.59 -25.34,-23.78 -47.81,-28.16 -14.44,-2.81 -25.38,-1.13 -35.5,-1.06 -25.66,0.22 -37.37,0.47 -30.53,41.41 1.41,8.47 -0.53,36.37 5.25,48.66 5.44,11.59 8.47,11.06 9.81,26.75 6.84,79.22 -29.81,31.94 -29.81,98.03 0,12 0.47,22.94 4.84,32.5 9.94,21.69 9.28,37.56 7.91,64.12 -0.59,11.53 -12.31,30.97 -7.47,63.91 2.34,16.09 -0.72,16.62 8.63,27.81 30.41,36.37 7.31,70.06 7.31,121.84 0,26.78 -2.84,43.09 -2.84,68.66 0,45.56 -6.03,32.06 -19.37,55.03 -8.66,15 -3.22,84.44 -3.22,103.94l-0.03 0 0.02 -0.02z"/>
  <path id="_217670656" class="fil1" d="M317.43 840.16c9.66,75.44 84.87,138.91 180.16,129 83.44,-8.66 152.41,-75.25 142.84,-161.91 -8.16,-74.25 -85.03,-137.84 -179.12,-128.66 -83.41,8.16 -154.84,75.91 -143.87,161.56l0 0 -0.01 0.01z"/>
  <path id="_217670776" class="fil1" d="M968.12 321.48c7.72,75.66 80.97,139.28 175.22,132.69 85.63,-6.03 155.88,-73.5 148.62,-158.09 -6.5,-75.91 -81.25,-140.47 -176.31,-133.25 -84.16,6.31 -156.09,73.87 -147.53,158.66l0 -0.01z"/>
  <path id="_217670584" class="fil2" d="M1494.02 273.16c-2.5,6.63 -30.13,36.41 -36.47,42l-32.47 28c-2.97,2.81 -6,6.44 -9.12,9.59 -3.69,3.66 -8.88,6.34 -11.34,8.94 -3.19,3.34 -1.5,3.22 -3.81,6.69 -2.88,4.22 -19.19,14.5 -26.12,22.28 -3.97,4.37 -4.97,6.22 -9.53,10.44 -12.47,11.53 -21.59,24.97 -28,29.5 -2.47,1.75 -30.81,33.56 -39.22,39.78 -15.59,11.53 -28.34,25.25 -38.59,40.22 -4.91,7.22 -26.12,18.87 -34.97,25.78l-29.06 28.53c-9.12,8.19 -8.44,12.34 -14.94,23.44 -2.78,4.81 -11.94,15.78 -13.59,25.91 -2.78,16.81 5.44,45.94 36.28,41.66 15.84,-2.16 30.16,-20.28 53.84,-26.72 24.75,-6.75 55.78,-27.19 74.09,-43.94 3.91,-3.56 5.94,-5.22 10.12,-9.91 3.66,-4.06 7.22,-5.62 11.09,-9.16 12.19,-10.97 26.53,-32.78 37.41,-41.41 14.59,-11.59 25.87,-26.59 38.37,-40.44 6.37,-7.03 13.03,-11.87 19.59,-19.25 3.13,-3.56 5.66,-7.16 9.19,-10.78 14.38,-14.81 6.59,-4.97 23.37,-24.72 3.56,-4.22 1.94,-2.97 5.62,-3.81 1.19,-4.69 17.25,-23.87 22.56,-29.31l1.34 -1.34c12.69,-12.22 6.5,-8 17.22,-20.09 6.19,-6.97 4.56,-2.94 9.09,-9.59 3.09,-4.5 5.25,-6.22 8.53,-10.16l16.37 -19.59c5.5,-6.56 12.31,-26.75 19.53,-35.84 14.22,-17.97 5.34,-8.34 14.81,-22.25 6.16,-9.03 9.94,-17.09 -0.69,-23.47 5.13,-6.91 5.59,-7.56 9.25,-17.16 5.19,-13.59 4.03,-10.47 -7.81,-9.56 -0.38,-3.97 0,-2.41 -1.44,-5.09 3.56,-4.37 3.47,-1.09 8.22,-9.12 5.53,-9.31 14.66,-11.59 15.72,-18.94 2.88,-19.62 -4.22,0.59 7.94,-27.16 4.37,-9.91 14.94,-26.87 -0.78,-36.31 -3.34,2.22 -4.75,5.16 -7.59,8.41 -3.69,4.22 -4.94,3.25 -7.13,5.03 -3.87,3.16 -0.06,2.5 -5.84,7.5 -3.31,2.81 -19,20.47 -29.97,30.22 -9.12,8.09 -22.31,25.31 -33.22,34.97l-24.47 27.56c-8.97,11.78 0.84,5.56 -18.56,23.94l-4.19 4.06c-0.12,0.19 -0.44,0.47 -0.69,0.69l0.03 0 0.03 -0.02z"/>
  <path id="_217671040" class="fil3" d="M947.87 757.38c-1.31,-9.69 0.66,-5.09 5.5,-12.25 4.84,-7.22 2.78,-4.06 8.12,-9.25 18.06,-17.59 4.28,-8.12 9.37,-23.12 1.34,-3.81 8.25,-14.81 11.47,-24.37 3.34,-10 3.84,-17.75 -3.53,-24.72 -6.34,2.37 -25.12,23.06 -29.56,28.16 -19.72,22.44 -38.5,39.84 -56.06,58.91 -16.5,17.88 -33.72,41 -51.59,61.66l-27.06 30.31c-14.94,13.34 -9.56,5.5 -31.12,26.69l-43.78 41.94c-16.75,13.09 -65.06,67.34 -85.44,85.84l-42.75 42.94 -24.5 18.66c-3.5,3.25 -3.84,3.84 -7.03,6.37 -19.44,15.28 -35.59,37.66 -49.06,63.94 -7.59,14.84 -1.78,32.41 8.09,41.78 21.41,20.31 52.53,-10.22 62.12,-14.16l30.94 -12.87c3.91,-1.81 5.22,-3.41 8.53,-5.09 10.41,-5.22 1.47,3.84 19.97,-8.72 6.66,-4.5 12.5,-6.63 18.91,-10.94 10.19,-6.84 86.12,-90.34 97.22,-102 9.22,-9.72 18.5,-21.28 27.47,-29.94l27.84 -29.59c4.59,-5.47 9.41,-9.75 14.28,-15.12 4.53,-5.06 8.66,-9.94 13.16,-14.91 29.78,-33.12 50.62,-57.56 72.69,-96.06 3.56,-6.19 6.97,-11.5 10.91,-18.16 2.44,-4.12 9.09,-14.06 10.44,-17.37 3.78,-9.31 -6.56,-7.34 -3.22,-19.25 1.62,-5.84 6.09,-12.12 8.12,-19.25l-10.41 0 -0.03 -0.03 -0.01 -0.03z"/>
  <path id="_217671256" class="fil4" d="M130.65 920.69c4.31,2.56 33.19,34.44 40.84,41.66 4.12,3.94 7.47,6.31 11.5,10l30.25 31.22c3.84,3.75 7.41,6.16 11.47,10.06l28.34 33.03c6.34,7.19 14.87,12.59 19.75,21.59 9.66,17.72 7.81,21.09 12.81,27.88 16.87,22.62 48.44,35.87 73.41,52.19 6.69,4.41 19.5,10.69 28.47,13.87 10.59,3.78 21.84,8.16 34.66,3.87 12.84,-4.31 19.03,-7.16 24.84,-17.16 5.19,-8.97 7.5,-20.75 2.91,-31.47 -3.63,-8.47 -31.53,-31.44 -41,-41.94 -13.31,-14.78 -27.41,-23.19 -40.28,-42.62 -4.34,-6.56 -39.31,-34.38 -43.09,-39.97 -4.31,-6.25 -4.66,-7.03 -9.34,-11.97 -4.37,-4.59 -6.19,-4.72 -11.31,-8.88l-20.53 -20.91c-9.56,-11.69 -26.78,-28.06 -39.94,-42.94l-40.88 -42.03c-7.97,-7.03 -16.59,-12.19 -21.97,-19.69 -8.69,-12.12 -19.25,-22.97 -30.41,-32.38 -4.72,-3.97 -5.34,-6.37 -9.91,-10.16 -4.97,-4.09 -6.97,-4.75 -11.91,-9.62 -4,-3.97 -6.44,-7 -9.34,-10.66 -9.22,-11.59 -17.06,-13.44 -21.84,-19.78l-9.31 -6.88c-0.19,-0.22 -0.5,-0.47 -0.72,-0.66 -15.62,-12.69 -11.25,0.41 -38.56,-32.66 -6.56,-7.94 -13.72,-10.53 -17.16,-13.81 -10.72,-10.06 -18.84,-21.25 -28.06,-31.97 -2.5,-2.81 -27.28,-25.72 -33.34,-27.22 -3.38,2.03 -1.47,1.56 -5.66,2.56 0.47,19.88 8.81,18.09 11.59,23.87 7.59,15.69 -4.62,22.16 -4.53,26.97 1.78,6.03 -0.78,-1.5 2.09,3.25l1.31 2.88c3.25,11.66 -1.75,17.31 7.91,23.12 -1.56,2.59 -1.97,3 -2.81,6.34 14.94,9 1.37,12.06 12.31,25.78 4.66,5.81 1.78,7 7.09,12.69 6.59,7.06 3.5,6.94 8.56,12.63 3.38,3.75 6.22,5.94 9.97,10.12 2,2.25 3.31,3.09 5.5,5.22 5.5,5.28 6.66,9.31 16.75,15.44 6.19,3.78 27.72,25.12 32.66,30.41 5.81,6.22 23.22,26.75 27,34.19 5.44,10.78 3.28,4.75 9.37,11.91 7.03,8.22 11.97,15.78 20.56,22.59l-0.03 0 0.01 0.04z"/>
  <path id="_217671472" class="fil5" d="M650.62 165.13c-6.03,-5.87 -10.12,-11.87 -15.25,-16.75 -10.16,-9.69 -12.44,-11.09 -19.56,-8.19 -1.06,3.56 0.97,9.19 2,12.53 2.53,8.09 3.13,4 7.22,8.69 5.56,6.34 5.19,16.13 0.44,23 -8.56,12.34 -4.19,11.41 0.03,22.41 1.84,4.75 1.37,6.78 3.75,11.84 8.25,17.47 9.09,30.84 10.63,34.94l52.19 57.37c3.72,2.88 5.87,4.31 8.75,7.34 5.47,5.78 11.25,10.09 16.94,15.28l22.41 25.56c1.81,2.5 3.41,6.12 5.47,9.09 7.28,10.47 20.31,24.69 30.13,32.66 5.72,4.66 10.28,11.16 15.31,16.75 5.13,5.62 10.66,9.5 16.19,14.62l30.84 33.31c3.38,3.53 5.16,3.59 8.94,7.22 2.25,2.19 1.59,1.94 4.06,3.97 14.56,12.19 20.37,25.12 34.94,35.94 39.59,29.28 44.41,73.28 67.59,87.94l40.06 23.72c23.53,14.09 66.16,44.91 92.09,21.22 36.31,-33.16 1.31,-57.16 -18.97,-75.59 -19.94,-18.16 -13.34,-9.94 -32.22,-30.72 -11.87,-13.06 -18.09,-16.66 -31.47,-31.47 -6.25,-6.88 -12,-10.25 -16.41,-15.72 -6.28,-7.75 -9.44,-10.47 -15.28,-16.78 -15.97,-17.16 -24.94,-24.41 -39.75,-39.25l-38.03 -40.81c-3.5,-2.88 -5.84,-3.44 -9.53,-6.69 -12.38,-10.78 -27.78,-33.5 -38.34,-40.5 -13.56,-9 -18.56,-23.72 -29.81,-32.91 -4.56,-3.78 -3.91,-3.19 -8.03,-8.09l-40.81 -38.25c-6.66,-6.34 -11.41,-6.94 -17.31,-13.69 -13.78,-15.69 -22.06,-16.78 -35.97,-27.34l-63.22 -62.66 0 0 -0.02 0.01z"/>
  <path id="_217671688" class="fil1" d="M1090.12 1419.91l16.94 0 0 -76.25 50.59 68.87c7.59,10.34 3,8.66 24.31,8.66l0 -100.44 -16.94 0 0 76.28 -13.56 -18.31c-4.37,-5.87 -40.25,-53.53 -41.56,-57.97l-19.78 0 0 99.16z"/>
  <path id="_217671904" class="fil1" d="M1249.81 1419.91l16.94 0 0 -76.25 28.84 38.88c2.78,3.78 25.56,38.66 30.5,38.66l15.56 0 0 -100.44 -16.97 0 0 76.28 -13.56 -18.31c-4.37,-5.87 -40.25,-53.53 -41.53,-57.97l-19.78 0 0 99.16 0 0 0 -0.01z"/>
  <path id="_217672096" class="fil1" d="M242.28 1370.35c0,-21.31 13.78,-38.16 33.91,-38.16 14.13,0 21.78,-0.56 32.94,9.78 20,18.59 14.84,66.53 -28.69,66.53 -23.75,0 -38.16,-16.19 -38.16,-38.16l0 0 0 0.01zm-16.94 -3.81c0,22.25 7.41,42.5 31.84,51.41 14.22,5.22 22.09,5.16 35.97,3.25 45.97,-6.34 63.63,-73.16 15.53,-97.87 -9.72,-5 -21,-5.13 -32.47,-5.13 -28.13,0 -50.87,24.81 -50.87,48.34l0 0z"/>
  <path id="_217672288" class="fil1" d="M488.15 1371.6c0,-15.44 5.06,-29.66 19.34,-36 23.66,-10.53 58.37,1.31 58.37,30.94 0,12.09 -1.19,23.16 -10.94,32.13 -19.28,17.72 -66.78,12.78 -66.78,-27.06l0 0 0.01 -0.01zm-16.94 -5.06c0,23.75 7.97,42.72 31.84,51.41 63.22,23.03 102.63,-45.19 66.31,-83.78 -13.34,-14.13 -27.75,-15.97 -47.28,-15.97 -27.56,0 -50.87,23.91 -50.87,48.34l0 0z"/>
  <path id="_217672480" class="fil1" d="M1361.43 1366.54c0,16.34 2.25,30.59 15.19,42.25 17.56,15.87 47.72,16.37 70.41,8.06 4.22,-1.56 4.62,-2.34 9.06,-3.28l0 -44.5 -46.62 0c0,17.59 -5.13,13.97 31.09,13.97 0,17.62 4.59,25.47 -22.62,25.47 -23.16,0 -39.56,-15.19 -39.56,-31.81 0,-12.69 -0.69,-24.69 9.5,-34.69 21.22,-20.87 55.22,-3.44 61.16,-2.19 1.84,-3.44 4.12,-9 4.25,-13.97 -5.97,-1.25 -8,-3.59 -14.09,-5.13 -39.03,-9.87 -77.75,7.75 -77.75,45.81l0 0 -0.02 0.01z"/>
  <path id="_217672672" class="fil1" d="M1019.46 1369.07l-8.5 0 0 -35.59c23.75,0 41,-1.44 41,19.06 0,14.34 -19.78,16.53 -32.5,16.53zm-25.44 50.84l16.94 0 0 -38.12 18.37 0c1.28,4.31 9.41,15.12 12.47,19.31 4.59,6.44 8.44,12.72 13,18.84l18.34 0c-2.5,-9.69 -26,-32.75 -26.84,-41.97 20.31,-4.25 29.28,-28.09 17.41,-44.91 -1.41,-1.94 -0.75,-1.06 -1.78,-2.19 -13.03,-14.47 -40.47,-10.09 -67.91,-10.09l0 99.16 0 -0.03z"/>
  <path id="_217672864" class="fil1" d="M933.27 1338.57c3.34,12.97 14.84,35.69 15.53,43.22l-33.91 0c0.66,-7.19 9.56,-24.91 12.53,-33.22 1.81,-5.06 1.66,-7.22 5.84,-10l0.01 0zm-50.87 81.34l16.97 0c0.12,-1.37 6.63,-25.41 12.72,-25.41 61.66,0 36.28,-4.16 53.69,25.41l15.53 0c-0.66,-6.97 -15.5,-40.34 -19.22,-50.06 -2.12,-5.5 -3.25,-6.19 -5.09,-11.94l-15.25 -37.13 -19.78 0 -30.09 73.34c-2.66,6.12 -8.91,19.56 -9.47,25.78l0 0 -0.01 0.01z"/>
  <path id="_217673056" class="fil1" d="M803.27 1419.91l70.66 0 0 -12.69 -53.69 0 0 -30.53 40.94 0c6.5,0 6.5,-14 0,-14l-40.94 0 0 -29.22 53.69 0 0 -12.72 -70.66 0 0 99.16z"/>
  <path id="_217673248" class="fil1" d="M617.62 1419.91l-0.47 -31.81c0,-1.31 -0.16,-4 -0.06,-5.09 0.19,-1.91 -0.06,-0.59 0.34,-2.22 1.75,-7.47 30.5,-3.81 44.53,-3.5l0 -12.06 -42.37 0 0 -31.78 52.25 0 0 -12.72 -69.22 0 0 99.19 15 0 0 0 0 -0.01z"/>
  <path id="_217673440" class="fil1" d="M380.78 1381.79l0 38.12 16.97 0 0 -38.12c0,-5 5.91,-10.97 8.47,-15.25l28.25 -45.81 -18.34 0c-1.94,7.34 -23.53,35.81 -25.47,43.25l-2.81 0c-1.13,-4.25 -9.94,-17.06 -12.78,-21.56 -4.37,-6.81 -9.25,-15.19 -14.06,-21.69l-18.37 0c6.09,10.38 12.44,19.53 18.84,30.09 2.63,4.34 19.31,28.81 19.31,30.94l0 0.03 -0.01 0z"/>
  <polygon id="_217673872" class="fil1" points="715.65,1419.91 784.9,1419.91 784.9,1407.22 732.62,1407.22 732.62,1320.76 715.65,1320.76 "/>
  <path id="_217673800" class="fil1" d="M188.59 1390.69c0,15.78 -13.94,20.91 -29.09,15.97 -5.19,-1.69 -5.87,-3.44 -10.47,-4.56 -1.53,2.88 -2.81,9.56 -2.81,14 33.69,16.03 57.94,-2.28 57.94,-17.78l0 -77.53 -15.56 0 0 69.91 -0.01 -0.01z"/>
  <polygon id="_217674232" class="fil1" points="1207.4,1419.91 1224.37,1419.91 1224.37,1320.79 1207.4,1320.79 "/>
  <path id="_217674280" class="fil1" d="M617.62 1419.91c4.31,-2.37 1.97,-15.03 1.97,-19.06l0 -21.63 42.37 -1.94c-14.03,-0.31 -42.78,-3.97 -44.56,3.5 -0.38,1.62 -0.16,0.31 -0.31,2.22 -0.09,1.13 0.03,3.81 0.03,5.09l0.5 31.84 0 -0.03 0 0.01z"/>
  <path id="_217674496" class="fil1" d="M3991.44 556.97c-9.12,-0.66 1.31,-2.16 -16.56,0.19 8.78,-15.78 50.13,-107.44 53.53,-120.66l15.31 0c0.5,5.28 9.37,24 11.97,30.53 9.59,24.22 22.87,50.53 33.37,74.38 2.34,5.28 5.62,10.44 6.97,15.56l-20.44 -1.16c-6.41,0 -5.69,1.03 -11.47,1.16 -2.03,-3.87 -12.34,-31.34 -12.75,-35.59l-45.91 0 -14.03 35.59 0 0 0.01 0zm-932.32 0c-9.09,-0.66 1.31,-2.16 -16.56,0.19l46.81 -104.94c2.41,-5.5 3.97,-11.06 6.72,-15.72l14.06 0c2,7.81 34.84,80.81 39.34,90.81l14.22 29.66 -19.12 -1.16c-7.09,0 -7.56,1.16 -14.06,1.16 -0.44,-4.94 -4.53,-14.03 -6.19,-18.5 -8.19,-22.12 2.25,-17.09 -48.66,-17.09 -5.09,0 -7.75,12.38 -9.37,16.78 -2.53,6.84 -5.44,12.12 -7.19,18.81l0 0zm556.07 2.32c-47.53,0 -72.69,-20.81 -72.69,-61.97 0,-40.34 31.37,-60.81 76.53,-60.81 43.66,0 68.87,22.56 68.87,61.97 0,37.75 -30.63,60.81 -72.72,60.81l0.01 0zm-165.79 -98.69l0 76.88c0,8.31 1.25,11.5 1.25,19.5l-20.37 -1.13c-6.44,0 -5.72,1 -11.5,1.13 0,-13.97 1.28,-23.75 1.28,-37.84l0 -44.75c0,-13.37 -1.28,-22.34 -1.28,-35.59l17.88 1.16c7.06,0 7.53,-1.16 14,-1.16 0,8.75 -1.25,12.78 -1.25,21.81l0 0 -0.01 -0.01zm-1450.09 0l0 72.28c0,9.72 1.25,14.62 1.25,24.09l-20.41 -1.13c-6.41,0 -5.72,1 -11.5,1.13 0,-13.25 1.28,-22.16 1.28,-35.56l0 -47.03c0,-13.37 -1.28,-22.34 -1.28,-35.59l17.88 1.16c7.09,0 7.56,-1.16 14.03,-1.16 0,8.75 -1.25,12.78 -1.25,21.81l0 0zm660.63 -21.81l49.75 0c50.16,0 45.47,38.88 31.53,50.19 -6.84,5.59 -13.41,6.06 -21.34,9.5 1.19,3.94 7.59,11.37 10.19,14.91 3.66,4.88 6.84,9.25 10.75,14.44l21.16 29.16 -19.16 -1.13c-7.06,0 -7.53,1.13 -14,1.13 -10.94,-18.56 -19.12,-27.84 -28.94,-42.81 -2.41,-3.66 -7.53,-11.37 -10.59,-13.41 0,9.56 0,19.12 0,28.69 -0.06,10.47 1.25,16.69 1.25,27.53l-19.12 -1.13c-6.37,0 -5.69,1 -11.47,1.13 0,-6.69 0.97,-8.41 1.25,-13.75 0.31,-4.84 -0.28,-10.12 0,-14.94 1.37,-22.97 2.34,-33.78 0.09,-58.56 -0.47,-5.06 0.16,-10.91 -0.03,-16.03 -0.19,-5.97 -1.31,-7.81 -1.31,-14.91l0 0 -0.01 -0.01zm299.68 14.9l0 92.97c0,5.78 1.16,5.16 1.31,10.31 -8,-1.66 -8.59,-1.66 -16.59,0 -4.28,-5.75 -35.75,-35.41 -41.34,-41.97 -3.5,-4.06 -6.78,-6.41 -10.66,-9.91l-20.53 -20.56c-3.19,-3.66 -7.5,-7.69 -11.66,-10.16l0 82.59c-7.91,-1.66 -7.37,-1.66 -15.31,0 0,-12.47 1.31,-20.62 1.31,-33.25l0 -47.06c0,-14.13 -1.31,-23.87 -1.31,-37.87 20.09,0 19.12,-2.22 28.97,8.37l40.31 40.62c3.44,3.78 7.22,6.12 10.69,9.87l20.81 20.31 0 -79.19 15.31 0c0,6.56 -1.31,7.97 -1.31,14.94l0 -0.03 0 0.02zm817.54 -14.9c30.66,0 15.12,-3.34 44.34,23.22l33.75 33.91c7.47,6.78 17.97,18.47 23.94,22.06l0 -40.16c0,-14.59 -1.25,-25.12 -1.25,-39.03l15.31 0 -1.28 88.37c-0.03,11.44 1.28,18.37 1.28,29.81 -6.37,-2.72 -10.56,-0.44 -16.59,0 -3.59,-6.06 -5.31,-5.81 -9.84,-10.66 -2.12,-2.31 -2.09,-2.78 -4.5,-5.13l-63.44 -62.28c-2.41,-2.94 -2.03,-3.5 -6.41,-4.56l0 61.97c-0.03,8.72 1.28,12.44 1.28,20.66 -7.75,-1.62 -8.84,-1.62 -16.59,0l0 -118.19 0 0.01zm-447.66 14.9c-5.66,-2.44 -28.25,-2.28 -36.97,-2.28l0 76.88c0,11.16 1.28,17.72 1.28,28.69l-20.44 -1.13c-6.41,0 -5.69,1 -11.47,1.13 3.56,-6.69 2.56,-93.59 2.56,-105.56 -8.72,0 -31.31,-0.16 -37,2.28l0 -14.91 59.94 1.16c15.69,0 26.53,-1.16 42.09,-1.16 -0.09,4.03 -0.47,3.75 -0.38,6.41 0.16,2.81 0.38,5.47 0.38,8.5l0 0 0.01 -0.01zm878.75 28.69l0 39.03c0,9.72 1.28,14.59 1.28,24.09l21.69 -1.09c8.28,0 12.38,-1.19 21.66,-1.19 0,4.66 -0.59,9.41 1.25,13.75 -8.88,0 -12.41,-1.16 -21.66,-1.16l-34.44 0c-8.5,0 -11.03,1.16 -19.12,1.16l2.59 -72.31c-0.03,-6.91 -1.28,-8.34 -1.37,-14.84 -0.06,-5.31 0.28,-10.88 0.09,-16.19 -0.19,-5.72 -1.31,-7.94 -1.31,-14.84 6.44,0 6.72,1.13 15.28,1.13 7.78,0 9.31,-1.13 16.59,-1.13 -1.31,14.22 -2.53,27.75 -2.53,43.59l0 0zm-1715.38 -43.59l73.97 0c-1.22,4.72 -2.56,8.97 0,13.78l-43.38 -1.16 0 37.87c8.09,0 10.66,-1.16 19.12,-1.16l22.97 0 0 13.78 -42.09 -2.31 0 44.75c19.28,0 26.06,-1 43.38,-2.28 -2.59,9.94 -0.81,6.03 0,14.91l-54.84 -1.13c-8.5,0 -11.06,1.13 -19.12,1.13 3.25,-35.25 2.53,-49.12 2.53,-84.91 0,-6.5 -0.87,-29.91 -2.53,-33.28l0 0 -0.01 0.01zm-179.09 13.78c-4,2.06 -7.47,1 -12.56,1.44l0.28 -16.44 18.62 1.22c23.28,4.06 59.97,0 84.75,0 -2.31,8.91 -0.22,7.13 0,14.91 -5.59,-2.37 -27.53,-2.28 -37,-2.28l0 79.16c-0.03,10.53 1.25,16.47 1.25,26.41 -5.5,-0.09 -8.03,-1.16 -15.28,-1.19 -7.53,0 -10.97,1.09 -16.59,1.19 3.78,-40.72 1.84,-57 2.63,-96.44 0.16,-8.19 1.53,-9.19 -7.56,-9.25 -6.47,-0.06 -14.06,-0.28 -18.56,1.28l0.03 0 -0.01 -0.01zm-216.31 -13.78c33.34,0 17.72,-0.22 44.34,23.22l57.72 55.97 0 -79.19 15.31 0c-2.69,10.31 -3.19,112.25 0,118.19 -8,-1.66 -8.59,-1.66 -16.59,0 -2.97,-3.97 -6.97,-6.31 -10.38,-10.16 -3.75,-4.19 -6.81,-6.5 -10.22,-10.31 -12.84,-14.47 -38.69,-38.09 -53.09,-52.06 -3.87,-3.81 -5.69,-8.63 -11.75,-10.06l0 41.28c0,15.31 1.28,26.44 1.28,41.31 -5.25,-1.09 -9.97,-2.31 -15.31,0 0,-15.56 3.63,-108.34 -1.28,-118.19l-0.03 0zm-189.16 -28.66l0 180.13 2398.09 0 0.03 -180.13 -2398.09 0 -0.03 0z"/>
  <path id="_217674688" class="fil1" d="M2719.83 799.13c0,25.87 -1.25,48.25 -1.25,73.41 0,13.44 -1.31,23.31 -1.25,36.78l-2.59 35.53c17.19,0 20.53,-4.06 48.69,-1.34 5.5,0.53 11.84,1.34 16.37,1.34 0,-5.69 -0.84,-5.94 -1.22,-10.41l-1.34 -131.91c13.87,0 22.94,-1.13 37,-1.13l39.53 0c14.03,0 23.09,1.13 36.97,1.13l0 79.22c0,22.47 -2.53,41.47 -2.53,63.13 4.31,-0.09 9.47,-0.84 15.19,-1.25 34.03,-2.41 24.75,0.75 48.56,1.25 0,-19.25 -2.59,-36.47 -2.53,-55.12 0.03,-19.16 -1.31,-36.09 -1.31,-56.22l0 -67.69c0,-20.5 1.34,-37.87 1.31,-57.37 -0.06,-19.5 2.53,-37.5 2.53,-57.37 -17.03,0 -19.91,3.97 -47.41,1.34 -5.5,-0.53 -11.81,-1.34 -16.34,-1.34 0,22.94 2.53,43.75 2.53,67.69l0 51.66 -71.41 1.13c-15.69,0 -26.53,-1.13 -42.09,-1.13 0,-26.31 -1.09,-68.03 1.22,-93 0.38,-4.41 -0.28,-9.28 0.12,-13.66 0.44,-4.75 1.22,-6.44 1.22,-12.72 -11.12,0 -20.66,2.31 -33.19,2.31 -12.41,0 -20.97,-2.31 -31.87,-2.31l2.59 35.56c-0.06,13.87 1.25,23.37 1.22,36.75 0,26.03 1.28,49.06 1.28,75.75l0 0 0 -0.01z"/>
  <path id="_217674880" class="fil1" d="M2371.71 203.54c0,-31.62 5.66,-61.84 16.56,-83.72 9.75,-19.56 30.13,-43.63 61.22,-43.63 19.03,0 31.97,1.09 47.5,13.5 9.59,7.66 15.47,16.03 21.34,26.66 29.75,53.28 33.41,214.59 -65.03,214.59 -66.84,0 -81.59,-78.66 -81.59,-127.41l0 0 0 0.01zm79.03 152.65c48.28,0 86.06,-15.22 109.16,-41.78 33.91,-39.09 38.78,-69.12 38.78,-120.03 0,-55.69 -24.81,-110.47 -75.66,-131.59 -38.25,-15.94 -91.78,-15.66 -129.66,-0.38 -53.5,21.59 -76.81,71.12 -82.72,120.66 -0.72,5.81 0.38,12.25 -0.38,18.03 -2.37,18.47 2.12,46.13 6.56,62.12 15.41,55.59 61.19,92.97 133.91,92.97l0.01 0z"/>
  <path id="_217675072" class="fil1" d="M3715.93 799.13c0,-39.91 9.56,-106.81 55.75,-124.31 37.19,-14.13 72.06,1.94 89.25,32.84 18.66,33.59 19.53,60.37 19.53,100.63 0,28.47 -7.84,59.31 -18.69,78.44 -23.28,41.16 -73.03,49.66 -104.66,25.66 -31.84,-24.16 -41.19,-72.34 -41.19,-113.25l0 0 0.01 -0.01zm81.62 151.44c92.84,0 145.41,-68.16 145.41,-142.28 0,-32.63 -0.56,-59.59 -14.19,-89.38 -19.84,-43.25 -59.19,-73.56 -119.72,-73.56 -30.84,0 -49.91,1.75 -77.37,14.13 -45.31,20.37 -68.28,62.69 -75.12,106.81l-3.13 32.84c-0.5,7.28 1.16,9.81 1.34,16 1.06,35.34 10.09,65.78 33.09,93 10.59,12.59 26.62,23.41 43.81,30.59 16.37,6.84 42.47,11.84 65.91,11.84l-0.03 0 0 0.01z"/>
  <path id="_217675264" class="fil1" d="M3227.46 797.94c0,-35.16 6.09,-69.16 25.56,-98.63 9.62,-14.59 27.47,-26.5 49.72,-28.75 66.37,-6.75 89.25,64.84 89.25,112.47 0,41.19 1.03,68.12 -19.53,105.19 -33.06,59.62 -145,60.59 -145,-90.28l0 0zm-61.22 -9.15c0,41.66 0.03,67.56 22.53,104.78 12.31,20.37 33.97,37.69 58.19,46.34 8.88,3.19 17.88,6.03 28.41,7.72 51.69,8.25 109.03,-2.44 140.87,-39.5 5.97,-7 10.5,-11.87 15.69,-20.28 18.56,-30.03 20.47,-51.5 22.59,-84.19 0.97,-14.97 0.03,-31.97 -2.78,-46.84 -7.37,-38.97 -27.09,-78.84 -66.94,-96.97 -58.28,-26.47 -139.78,-17.62 -180.5,27.78 -23.78,26.53 -38.06,64.19 -38.06,101.16z"/>
  <path id="_217675456" class="fil1" d="M4056.47 178.32l0 58.53c0,20.41 -1.25,38.03 -1.25,57.34 0,19.25 -2.59,37.41 -2.59,56.25 4.62,-0.34 12.28,-2.19 16.59,-2.19 4.34,0 12,1.84 16.59,2.19 0,-34.59 -1.28,-65.94 -1.28,-100.97l0 -103.28c4.97,2.97 78.22,94.22 84,101.12l81.81 103.13c5.09,-0.12 12.31,-1.97 16.69,-2.09 4.84,-0.12 12.28,1.97 17.75,2.09 -5,-54.03 -3.97,-128.19 -3.87,-183.66 0,-7.72 1.34,-12.75 1.34,-21.75 -0.06,-14.91 0,-29.84 0,-44.75l1.22 -33.31c0.16,-5.59 1.19,-5.31 1.31,-10.31l-19.12 1.16c-7.09,0 -7.56,-1.16 -14.03,-1.16 0,33.53 1.25,63.16 1.25,96.41l0 98.69 -128.44 -157.53c-3.69,-4.41 -6.5,-8.12 -10.03,-12.75 -6.75,-8.81 -13.22,-16.16 -19.66,-24.81l-25.53 1.16c-7.75,0 -9.28,-1.16 -16.56,-1.16 0,20.44 2.59,39.62 2.56,59.69 -0.03,21.12 1.25,39.94 1.25,61.97l0 0 0 -0.01z"/>
  <path id="_217675648" class="fil1" d="M2137.02 114.1c3.56,2.88 5.94,9.31 8.59,13.5l2.47 -7.03c0.63,-4.12 -0.75,-3.16 1.69,-6.28l4.81 -18.84c1.75,-6.66 3.72,-11.75 5.38,-18.13 -31.78,-19.12 -46.87,-21.31 -82.16,-25.91 -31.97,-4.16 -75.19,6.19 -93.31,16.06 -53.91,29.34 -73.34,79.81 -73.22,134.94 0.16,65.75 23.62,113.34 69.72,138.06 44,23.59 111.56,16.19 161.59,1.22 7.22,-2.16 14.22,-4.72 21.19,-6.19l-0.34 -58.84c1.19,-7.87 0.34,-21.03 0.34,-29.5l1.28 -29.81c-6.97,0 -7.47,0.97 -13.97,1.16 -4.97,0.12 -10.34,-0.03 -15.37,-0.03 -5.06,0 -10.28,0.12 -15.34,0.06 -6.37,-0.09 -8.84,-1.19 -15.25,-1.19l1.62 23.75c1.62,10.75 0.91,65.03 0.91,78.34 -23.37,14.09 -64.56,15.87 -92.37,-2.94 -23.37,-15.78 -34.94,-45.94 -38.91,-71.69 -6.25,-40.59 -4.56,-87.28 13.97,-125.03 4.06,-8.25 9.75,-14.34 15.84,-21.31 24.34,-28.16 84.69,-28.72 112.69,-3.66 3.13,2.78 6.84,5.75 9.44,8.69 3.03,3.47 5.06,8.09 8.72,10.59l0 0 -0.01 0.01z"/>
  <path id="_217675840" class="fil1" d="M2824.47 198.97l-8.97 0 0 -88.37c0,-11.16 1.28,-17.72 1.28,-28.69 5.19,-0.38 3.19,-1.16 11.47,-1.16 57.87,0 45.75,79.41 33.62,99.06 -6.19,10.06 -20.75,19.12 -37.41,19.12l0 0.03 0.01 0.01zm-65.06 -21.81l0 58.53c0,20.5 -1.31,37.87 -1.28,57.37 0.03,19.5 -2.56,37.5 -2.56,57.34l31.91 -2.34c6.28,0.09 7.87,1.13 15.31,1.22 7.31,0.09 8.84,1.13 16.56,1.13 0,-5.72 -1.28,-7.91 -1.25,-14.91 0,-8.97 -2.59,-31.91 -2.59,-47.03l0 -65.41c5.09,0.38 3.06,1.16 6.37,1.16 72.94,0 111,-26.19 111,-91.81 0,-22.84 -6.63,-46.37 -25.09,-60.06 -20.62,-15.22 -45.09,-15.66 -74.41,-15.69 -11.69,0 -18.34,1.22 -29.34,1.16l-34.44 0c-7.06,0 -7.56,-1.16 -14.03,-1.16 0,20.81 2.59,39.28 2.56,59.69 0,20.66 1.25,39.19 1.25,60.81l0.03 0z"/>
  <path id="_217676032" class="fil1" d="M3139.46 139.29c3.59,2.37 7.84,17.19 9.75,22.25l20.12 61.06c1.34,4.81 3.19,8.25 3.31,13.09l-66.34 0c0.63,-6.69 13.28,-41.56 15.59,-49.09 4.25,-13.94 15.12,-37.87 17.56,-47.31l0 0 0.01 0zm-105.85 211.15l22.94 -1.16c6.44,0 5.72,1.03 11.5,1.16 2.31,-4.31 5.06,-15.47 6.94,-21.31l13.47 -42.94c1.66,-5.66 5.91,-16.66 6.37,-21.81 10.56,0 15.97,-1.16 26.78,-1.16l38.25 0c10,0 14.53,1.16 24.25,1.16 2.78,10.72 24.03,78.16 24.25,86.06 8.91,0 12.44,-1.16 21.69,-1.16l26.75 0c8.5,0 11.06,1.16 19.16,1.16 -2.75,-5.16 -4.34,-11.91 -6.94,-17.88 -8.34,-19.34 -19.75,-52.47 -27.69,-73.78 -2.25,-6.12 -4.5,-12.22 -7,-18.94 -4.72,-12.75 -8.72,-24.69 -13.37,-37.28l-32.53 -93.53c-3.94,-10.81 -16.09,-51.47 -19.62,-58.09 -8.72,0.66 -4.03,1.16 -17.84,1.16 -6.44,0 -5.72,-1.03 -11.5,-1.16l-12 38.53c-4.25,13.37 -8.34,24.78 -12.5,38.09l-67.5 186c-2.19,5.94 -4.28,11.62 -6.94,17.84l-6.91 19.03 0 0 -0.01 0.01z"/>
  <path id="_217676224" class="fil1" d="M3782.23 139.29c3.28,2.19 3.75,6.03 5.25,10.19 1.41,3.84 2.84,7.62 4.5,12.06 3.31,8.94 23.22,66.09 23.41,74.16l-66.31 0c1.09,-11.81 33,-94.31 33.16,-96.41l0 0 -0.01 0zm-105.84 211.15l22.97 -1.16c6.37,0 5.69,1.03 11.47,1.16l7.09 -21.16c2.44,-7.69 4.66,-14.47 6.69,-21.53l13 -43.38c10.56,0 15.97,-1.16 26.78,-1.16l38.28 0c10,0 14.5,1.16 24.22,1.16l25.5 86.06c8.09,0 10.66,-1.16 19.16,-1.16l25.5 0c9.22,0 12.75,1.16 21.69,1.16l-27.91 -73.59c-17.19,-46.44 -37.59,-101.94 -53.28,-149.44 -4.25,-12.94 -8.06,-25 -12.72,-37.91 -3.25,-8.94 -9.97,-32.41 -13.25,-38.56 -8.75,0.66 -4.03,1.16 -17.88,1.16 -6.37,0 -5.69,-1.03 -11.47,-1.16l-11.94 38.56c-2.37,6.56 -3.81,12.31 -6.09,18.66l-73.66 205.72c-2.37,5.91 -4.41,11.53 -7.06,17.72 -2.75,6.37 -5.38,12.25 -7.09,18.87l0 -0.03 0 0.01z"/>
  <path id="_217676416" class="fil1" d="M1913.84 723.38c0,15.25 -0.91,28.31 4.91,42.59 18.84,46.47 84.94,64.47 102.19,89.38 17.22,24.84 5.03,67.69 -35.69,67.69 -15.5,0 -30.5,-8.47 -37.91,-16.37 -6.97,-7.47 -15.84,-24.25 -16.94,-36.41l-6.37 0c0,17.72 -11.5,49.19 -11.5,60.81 6.5,1.56 20,19.5 66.34,19.5 99.91,0 114.72,-101.03 84.25,-146.94 -25.41,-38.28 -103.37,-49.34 -103.37,-90.59 0,-16.44 3.41,-30.75 20.37,-37.87 25.62,-10.81 52.16,6.16 61.59,23.75 1.37,2.59 2.59,5.69 3.53,8.34 2,5.31 0.22,5.62 7.59,5.78 0,-11.47 11.22,-38.56 11.47,-48.19 -23.28,-14.06 -31.25,-19.5 -63.75,-19.5 -34.84,0 -65.75,18.78 -78.56,46.34 -3.5,7.56 -8.16,21.75 -8.16,31.69l0 0 0.01 0z"/>
  <path id="_217676608" class="fil1" d="M2276.03 792.23c0,35.37 4.03,64.87 20.81,94.87 38.06,68 135.16,78.75 196.62,45.69 6.53,-3.56 5.38,-3.69 6.94,-10.97 1.75,-8 6.28,-20.87 6.47,-28.62 -11.19,0 -12,8.84 -34,19.88 -15.56,7.78 -28.03,11.12 -47.63,11.12 -64.69,0 -88,-62.09 -88,-121.62l0 -13.78c0,-56.22 23.53,-117.06 84.19,-117.06 13.5,0 19.37,0.34 32.06,4.41 12.28,3.97 25.22,14.25 31.69,24.31 4.03,6.31 5.53,13.09 8.94,19.47 2.34,-1.03 1.59,-0.87 5.13,-1.16 1.69,-18.16 6,-36.59 10.19,-52.78 -4.31,-0.91 -4.88,-2 -8.5,-3.81 -3.38,-1.62 -5.38,-1.97 -8.91,-3.44 -55.25,-23.19 -123.03,-18.13 -168.53,20.12 -7.91,6.66 -22.87,25.66 -28.34,35.31 -12.28,21.56 -19.09,53.59 -19.09,78.06l-0.03 0 -0.01 0z"/>
  <path id="_217676800" class="fil1" d="M3417.51 177.16l0 57.37c0,20.84 -1.28,38.69 -1.28,58.53 0.03,19.75 -2.53,37.34 -2.53,57.34 17.19,0 32.38,-2.25 51,-2.25l40.81 0c20.69,0 38.06,2.25 57.37,2.25 0,-7.84 -1.22,-12.19 -1.34,-18.34 -0.16,-6.28 1.34,-10.56 1.34,-18.34 -13.28,0 -27.88,3.25 -42.09,3.44l-44.62 2.28c0,-7.28 -1.34,-9.59 -1.31,-17.19l-1.25 -130.84c0,-20.47 1.31,-37.84 1.31,-57.34 -0.06,-19.5 2.53,-37.5 2.53,-57.41 -9.5,0.22 -18.56,2.28 -37,2.28 -10.81,0 -17.91,-2.09 -26.75,-2.28 0,20.81 2.53,38.88 2.53,59.69 0,20.47 1.31,39.25 1.31,60.81l-0.03 0z"/>
  <path id="_217676992" class="fil1" d="M4161.03 749.79l0 98.66c0,17.44 -1.34,31.84 -1.28,48.22 0.09,16.31 -2.53,31.5 -2.53,48.19 11.09,0 24.09,-2.37 35.69,-2.34l38.25 -1.16c6.44,0.38 9.72,1.22 17.88,1.22 6.75,-0.06 13.72,-0.16 20.47,-0.09 11.16,0.16 25.56,2.37 36.94,2.37l0 -36.72c-13.59,0 -45.75,4.72 -63.72,4.59 -9.78,-0.06 -14.44,1.13 -23,1.13 0,-8.97 -1.31,-14.03 -1.31,-21.75 -0.03,-7.62 0.19,-15.37 0.06,-23.03 -0.09,-7.31 -1.31,-12.87 -1.31,-21.75 0.09,-65.66 -0.81,-131.97 5.09,-196.25 -11.12,0 -20.62,2.31 -33.16,2.31 -12.44,0 -20.97,-2.31 -31.87,-2.31 0,16.37 2.63,32.03 2.53,48.22 -0.06,17.19 1.28,32.28 1.28,50.5l-0.01 -0.01z"/>
  <path id="_217677184" class="fil1" d="M3573.08 492.72c0,15.12 0.28,30.75 10.72,43.16 21.16,25.12 73.47,20.34 73.47,-38.56 0,-23.62 -12.03,-51.62 -38.25,-51.62 -15.91,0 -25.44,2 -35.75,14.87 -5.69,7.09 -10.19,19.81 -10.19,32.16l0 -0.01z"/>
  <path id="_217677376" class="fil1" d="M1908.31 410.13l2398.09 0 0 180.13 -2398.12 0 0 -180.13 0.03 0zm0 0c-2.72,5.56 -0.87,160.41 -0.87,181.28l2400.28 0 0 -182.47 -2381.16 0c-2.97,0 -6,-0.03 -8.97,-0.06 -1.19,0 -3.91,0 -5,0.12 -4.31,0.56 -1.09,-0.41 -4.31,1.13l0.03 0z"/>
  <path id="_217677568" class="fil1" d="M2689.24 495.01c18.78,0 31.91,-3.63 31.91,-25.22 0,-21.31 -15.75,-21.81 -31.91,-21.81l0 47.03z"/>
  <path id="_217677664" class="fil1" d="M3078.23 511.1l34.44 0c-1.19,-4.62 -13.31,-37.22 -17.88,-40.16l-8.72 19.66c-2.12,4.72 -7.41,15.53 -7.84,20.5z"/>
  <path id="_217677856" class="fil1" d="M4010.57 511.1l34.44 0c-0.16,-5.94 -4.59,-14.72 -6.94,-20.19 -2.81,-6.72 -6.63,-13.25 -8.37,-19.97 -3.94,2.59 -8.5,14.34 -10.59,19.12 -2.81,6.63 -5.5,15.31 -8.53,21.03l0 0 -0.01 0.01z"/>
  <path id="_217678144" class="fil1" d="M2149.77 114.29c-2.41,3.13 -1.03,2.16 -1.69,6.31l-2.47 7.03c-2.63,-4.22 -5.03,-10.66 -8.59,-13.53 0.97,3.72 2.41,5.28 4.25,8.75 2.56,4.81 1.22,5.69 7.22,6.12 0,-6.56 1.28,-7.78 1.28,-14.69l0 0 0 0.01z"/>
  <path id="_217678432" class="fil1" d="M2313.74 452.57l-10.94 0 0 -13.78 17.31 0 -18.66 -1.22 -0.28 16.44c5.09,-0.44 8.59,0.63 12.56,-1.44l0 0 0.01 0z"/>
  <rect id="_217678912" class="fil6" x="1690.71" y="-2.85" width="12.19" height="1459.15"/>
  <path id="_217678768" class="fil7" d="M1874.9 1444.13l0 -187 24.75 0 0 187 -24.75 0zm201.78 -65.56l24.75 6.28c-5.16,20.28 -14.56,35.78 -28,46.47 -13.47,10.69 -29.97,16 -49.44,16 -20.16,0 -36.56,-4.09 -49.16,-12.28 -12.63,-8.22 -22.28,-20.09 -28.84,-35.66 -6.56,-15.56 -9.87,-32.31 -9.87,-50.16 0,-19.44 3.69,-36.44 11.16,-50.94 7.44,-14.5 18,-25.5 31.75,-33.06 13.72,-7.53 28.84,-11.28 45.34,-11.28 18.72,0 34.44,4.75 47.19,14.28 12.75,9.56 21.66,22.91 26.66,40.19l-24.34 5.78c-4.34,-13.66 -10.63,-23.53 -18.87,-29.78 -8.25,-6.19 -18.59,-9.31 -31.12,-9.31 -14.41,0 -26.34,3.44 -36,10.34 -9.69,6.91 -16.47,16.16 -20.34,27.78 -3.94,11.56 -5.87,23.53 -5.87,35.87 0,15.91 2.31,29.75 6.91,41.63 4.69,11.84 11.87,20.78 21.63,26.66 9.81,5.87 20.37,8.75 31.81,8.75 13.84,0 25.53,-4 35.16,-11.97 9.62,-8.03 16.16,-19.91 19.53,-35.62l0 0.03 -0.04 0zm46.81 5.5l23.37 -2.06c1.06,9.37 3.63,17.03 7.66,23.03 4.06,6 10.34,10.84 18.84,14.53 8.5,3.72 18.06,5.56 28.66,5.56 9.47,0 17.75,-1.41 25.03,-4.19 7.19,-2.84 12.59,-6.69 16.16,-11.56 3.5,-4.91 5.28,-10.22 5.28,-16 0,-5.87 -1.69,-10.97 -5.13,-15.37 -3.41,-4.41 -9,-8.03 -16.84,-11 -5,-1.97 -16.06,-5 -33.28,-9.16 -17.16,-4.12 -29.19,-8 -36.06,-11.66 -8.94,-4.69 -15.59,-10.5 -20,-17.37 -4.37,-6.97 -6.56,-14.72 -6.56,-23.31 0,-9.41 2.72,-18.25 8.03,-26.44 5.38,-8.22 13.22,-14.47 23.47,-18.72 10.34,-4.22 21.75,-6.37 34.31,-6.37 13.91,0 26.06,2.25 36.69,6.72 10.56,4.41 18.72,11 24.41,19.69 5.69,8.63 8.81,18.47 9.22,29.44l-23.72 1.84c-1.31,-11.84 -5.62,-20.81 -12.97,-26.84 -7.37,-6 -18.22,-9.03 -32.56,-9.03 -15,0 -25.87,2.75 -32.75,8.22 -6.84,5.5 -10.28,12.09 -10.28,19.81 0,6.75 2.44,12.28 7.28,16.59 4.78,4.37 17.19,8.81 37.31,13.31 20.12,4.56 33.87,8.56 41.41,11.97 10.88,5.03 18.91,11.41 24.09,19.03 5.22,7.72 7.78,16.59 7.78,26.59 0,10 -2.84,19.37 -8.56,28.16 -5.69,8.81 -13.87,15.62 -24.56,20.53 -10.66,4.88 -22.69,7.31 -36,7.31 -16.91,0 -31.12,-2.44 -42.53,-7.41 -11.47,-4.91 -20.41,-12.31 -26.94,-22.22 -6.5,-9.87 -9.94,-21.09 -10.22,-33.59l-0.03 -0.03 -0.01 0zm183.16 60.06l0 -187 135.19 0 0 22.09 -110.47 0 0 57.25 103.47 0 0 21.94 -103.47 0 0 63.69 114.78 0 0 22.06 -139.5 0 0 -0.03zm379.69 -65.56l24.75 6.28c-5.16,20.28 -14.53,35.78 -28,46.47 -13.47,10.69 -29.97,16 -49.44,16 -20.16,0 -36.56,-4.09 -49.16,-12.28 -12.63,-8.22 -22.25,-20.09 -28.84,-35.66 -6.56,-15.56 -9.87,-32.31 -9.87,-50.16 0,-19.44 3.72,-36.44 11.16,-50.94 7.44,-14.5 18,-25.5 31.78,-33.06 13.69,-7.53 28.81,-11.28 45.34,-11.28 18.72,0 34.44,4.75 47.19,14.28 12.75,9.56 21.59,22.91 26.59,40.19l-24.31 5.78c-4.34,-13.66 -10.59,-23.53 -18.87,-29.78 -8.25,-6.19 -18.59,-9.31 -31.16,-9.31 -14.34,0 -26.31,3.44 -36,10.34 -9.66,6.91 -16.44,16.16 -20.31,27.78 -3.94,11.56 -5.87,23.53 -5.87,35.87 0,15.91 2.31,29.75 6.94,41.63 4.66,11.84 11.81,20.78 21.59,26.66 9.81,5.87 20.41,8.75 31.81,8.75 13.87,0 25.56,-4 35.19,-11.97 9.59,-8.03 16.09,-19.91 19.5,-35.62l0 0.03 -0.01 0zm43.75 -2.19c0,-25.09 6.94,-43.66 20.91,-55.72 11.66,-10 25.84,-15.06 42.59,-15.06 18.66,0 33.87,6.09 45.69,18.31 11.84,12.19 17.72,29.06 17.72,50.59 0,17.44 -2.66,31.12 -7.84,41.09 -5.22,10.03 -12.84,17.78 -22.84,23.28 -10,5.56 -20.87,8.28 -32.72,8.28 -18.91,0 -34.28,-6.03 -45.97,-18.22 -11.75,-12.16 -17.53,-29.69 -17.53,-52.56l0 0 -0.01 0.01zm23.59 0c0,17.37 3.78,30.34 11.34,38.97 7.56,8.69 17.12,12.97 28.56,12.97 11.41,0 20.87,-4.34 28.47,-13 7.56,-8.63 11.34,-21.87 11.34,-39.66 0,-16.78 -3.78,-29.47 -11.41,-38.09 -7.66,-8.63 -17.09,-12.94 -28.41,-12.94 -11.44,0 -21,4.31 -28.56,12.91 -7.56,8.56 -11.34,21.53 -11.34,38.88l0 -0.03 0.01 -0.01zm218.1 67.75l0 -17.12c-8.56,13.47 -21.19,20.16 -37.87,20.16 -10.78,0 -20.72,-2.94 -29.75,-8.91 -9.06,-5.94 -16.06,-14.22 -21.06,-24.97 -4.97,-10.63 -7.47,-22.87 -7.47,-36.78 0,-13.5 2.28,-25.78 6.78,-36.78 4.5,-11.03 11.28,-19.47 20.28,-25.31 9.03,-5.87 19.09,-8.81 30.25,-8.81 8.12,0 15.41,1.75 21.78,5.19 6.37,3.44 11.56,7.91 15.56,13.44l0 -67.09 22.78 0 0 187 -21.28 0 0 -0.02zm-72.54 -67.62c0,17.37 3.63,30.38 10.94,38.94 7.34,8.59 15.97,12.87 25.94,12.87 10,0 18.5,-4.16 25.53,-12.31 7.03,-8.16 10.53,-20.72 10.53,-37.56 0,-18.56 -3.56,-32.16 -10.72,-40.78 -7.16,-8.72 -15.91,-13.03 -26.41,-13.03 -10.19,0 -18.72,4.19 -25.56,12.5 -6.81,8.28 -10.25,21.44 -10.25,39.38l0 -0.01zm222.69 24l23.72 2.94c-3.75,13.87 -10.66,24.66 -20.78,32.28 -10.12,7.66 -23.03,11.47 -38.75,11.47 -19.84,0 -35.53,-6.09 -47.16,-18.31 -11.59,-12.16 -17.37,-29.31 -17.37,-51.31 0,-22.78 5.84,-40.5 17.56,-53.06 11.75,-12.56 26.97,-18.91 45.69,-18.91 18.06,0 32.88,6.19 44.34,18.5 11.5,12.31 17.25,29.72 17.25,52.03 0,1.41 0,3.44 -0.12,6.16l-101 0c0.81,14.87 5.03,26.28 12.59,34.16 7.59,7.94 17,11.87 28.31,11.87 8.41,0 15.59,-2.19 21.56,-6.63 5.97,-4.41 10.69,-11.47 14.13,-21.16l0.03 -0.03zm-75.34 -37.13l75.59 0c-1,-11.37 -3.91,-19.94 -8.69,-25.59 -7.28,-8.84 -16.78,-13.28 -28.38,-13.28 -10.56,0 -19.44,3.53 -26.66,10.59 -7.16,7.03 -11.12,16.47 -11.91,28.28l0.03 0 0.02 0zm206.87 -28.56l0 -26.12 26.16 0 0 26.12 -26.16 0zm0 109.31l0 -26.16 26.16 0 0 26.16 -26.16 0zm140.66 0l0 -187 24.78 0 0 92.75 92.87 -92.75 33.53 0 -78.47 75.78 81.91 111.22 -32.66 0 -66.59 -94.62 -30.59 29.84 0 64.78 -24.78 0 0 0zm154.72 0l71.84 -187 26.66 0 76.53 187 -28.19 0 -21.84 -56.63 -78.19 0 -20.5 56.63 -26.31 0 0 0zm53.97 -76.78l63.44 0 -19.56 -51.78c-5.94,-15.72 -10.38,-28.62 -13.25,-38.78 -2.37,12 -5.72,23.87 -10.09,35.75l-20.53 54.81 -0.01 0zm187.09 20.66l0 -23.06 70.59 0 0 23.06 -70.59 0zm282.81 34.09l0 22.06 -123.59 0c-0.19,-5.56 0.69,-10.88 2.66,-15.97 3.16,-8.44 8.16,-16.69 15.12,-24.91 6.94,-8.12 16.97,-17.56 30.03,-28.28 20.31,-16.66 34.09,-29.88 41.19,-39.62 7.16,-9.69 10.75,-18.94 10.75,-27.56 0,-9.12 -3.25,-16.81 -9.75,-23.03 -6.56,-6.25 -15.03,-9.41 -25.47,-9.41 -11.06,0 -19.88,3.31 -26.53,10 -6.66,6.59 -10,15.78 -10.09,27.47l-23.56 -2.34c1.59,-17.66 7.69,-31.09 18.22,-40.28 10.53,-9.25 24.72,-13.87 42.5,-13.87 17.94,0 32.09,5.03 42.59,14.94 10.47,9.97 15.69,22.31 15.69,37 0,7.5 -1.5,14.84 -4.62,22.09 -3.03,7.19 -8.12,14.84 -15.22,22.84 -7.13,8 -18.91,18.94 -35.41,32.88 -13.72,11.59 -22.56,19.44 -26.5,23.56 -3.91,4.09 -7.16,8.22 -9.75,12.44l91.75 0 0 0 -0.01 -0.01zm111.1 22.03l-22.97 0 0 -146.31c-5.5,5.31 -12.75,10.56 -21.72,15.81 -9,5.28 -17.06,9.28 -24.19,11.87l0 -22.16c12.84,-6.09 24.03,-13.37 33.69,-21.97 9.56,-8.59 16.41,-16.91 20.44,-25.03l14.75 0 0 187.78 0 0.01zm177.9 -141.19l-22.78 1.78c-2.06,-9.03 -4.94,-15.59 -8.66,-19.62 -6.22,-6.59 -13.91,-9.84 -23,-9.84 -7.31,0 -13.75,2.06 -19.25,6.12 -7.22,5.28 -12.94,13 -17.09,23.12 -4.16,10.06 -6.34,24.5 -6.53,43.19 5.56,-8.37 12.31,-14.66 20.28,-18.75 7.97,-4.03 16.41,-6.09 25.12,-6.09 15.37,0 28.41,5.62 39.13,16.87 10.75,11.28 16.16,25.81 16.16,43.69 0,11.75 -2.56,22.62 -7.62,32.72 -5.06,10.06 -12.03,17.84 -20.84,23.16 -8.84,5.38 -18.87,8.03 -30.09,8.03 -19.16,0 -34.72,-7 -46.78,-21.12 -12.12,-14.06 -18.13,-37.25 -18.13,-69.53 0,-36.16 6.66,-62.44 20.03,-78.84 11.59,-14.28 27.28,-21.47 47.03,-21.47 14.69,0 26.72,4.12 36.12,12.44 9.44,8.19 15.03,19.62 16.91,34.16l0 0 -0.01 -0.02zm-93.72 80.6c0,7.91 1.72,15.5 5.06,22.75 3.34,7.22 8.03,12.69 14.06,16.47 6.09,3.78 12.41,5.72 19.03,5.72 9.72,0 18.06,-3.94 24.97,-11.75 7,-7.84 10.47,-18.47 10.47,-31.87 0,-12.94 -3.44,-23.12 -10.31,-30.59 -6.88,-7.41 -15.56,-11.12 -26,-11.12 -10.41,0 -19.19,3.72 -26.44,11.12 -7.19,7.47 -10.84,17.25 -10.84,29.28l0 0 0 -0.01z"/>
 </g>
</svg>
