<?xml version="1.0" encoding="UTF-8"?>
<!DOCTYPE svg PUBLIC "-//W3C//DTD SVG 1.1//EN" "http://www.w3.org/Graphics/SVG/1.1/DTD/svg11.dtd">
<!-- Creator: CorelDRAW 2019 (64-Bit) -->
<svg xmlns="http://www.w3.org/2000/svg" xml:space="preserve" height="50px" version="1.1" style="shape-rendering:geometricPrecision; text-rendering:geometricPrecision; image-rendering:optimizeQuality; fill-rule:evenodd; clip-rule:evenodd"
viewBox="0 0 283 80"
 xmlns:xlink="http://www.w3.org/1999/xlink"
 xmlns:xodm="http://www.corel.com/coreldraw/odm/2003">
 <defs>
  <style type="text/css">
   <![CDATA[
    .fil2 {fill:#FEFEFE}
    .fil1 {fill:#FECC00}
    .fil8 {fill:#E96220}
    .fil7 {fill:#E85D20}
    .fil6 {fill:#E65A21}
    .fil5 {fill:#E84F22}
    .fil4 {fill:#E54823}
    .fil3 {fill:#E32124}
    .fil0 {fill:#F4A609}
    .fil10 {fill:#A95743}
    .fil9 {fill:#039C44}
    .fil11 {fill:#FEFEFE;fill-rule:nonzero}
   ]]>
  </style>
 </defs>
 <g id="Layer_x0020_1">
  <metadata id="CorelCorpID_0Corel-Layer"/>
  <path class="fil0" d="M50.21 2.46l-2.7 0c-0.27,0 -0.29,-0.08 -0.54,-0.1 -1.1,-0.09 -3.11,-0.36 -4.01,0.31 -0.36,0.27 -0.71,0.52 -1.18,0.6 -0.73,0.13 -0.56,0.11 -1.35,0.11 -0.23,0 -0.29,-0.06 -0.49,-0.1 -0.26,-0.05 -0.24,-0.03 -0.46,-0.14 -0.27,-0.14 -0.47,-0.31 -0.65,-0.53 -0.83,-1 -1.36,-0.9 -2.61,-0.9 -0.52,0 -0.95,0.06 -1.4,0.28 -0.74,0.35 -1.23,0.39 -2.06,0.42l-2.29 -0.25c-0.75,-0.19 -1.58,-0.12 -2.36,-0.13l-0.68 0.07c-0.02,0.01 -0.03,0.01 -0.04,0.02l-0.33 0.1c-0.22,0.07 -0.36,0.19 -0.56,0.31 -0.09,0.05 -0.18,0.1 -0.29,0.14 -0.04,0.01 -0.09,0.03 -0.12,0.04 -0.52,0.2 -1.19,0.19 -1.76,0.19 -0.24,0 -1.31,-0.18 -1.38,-0.14 -0.14,0.08 -0.04,0.78 0.01,0.97 0.13,0.5 0.07,1.12 0.07,1.65l-0.12 0.64c-0.02,0.15 -0.1,0.41 -0.17,0.58 -0.17,0.42 -0.31,0.69 -0.3,1.26 0,0.66 -0.06,1.54 0,2.16 0.11,0.96 0.71,0.96 0.7,3.19 0,1.01 -0.11,1.92 -0.11,2.98 0,1.07 -0.1,6.14 0.1,6.82 0.01,0.03 0.03,0.1 0.04,0.12l0.1 0.33c0.41,0.87 0.36,1.83 0.36,2.78 0,0.27 -0.07,0.37 -0.1,0.6 -0.06,0.43 -0.21,0.71 -0.38,1.08 -0.08,0.16 -0.14,0.36 -0.19,0.56 -0.12,0.47 -0.13,2.46 -0.05,3.02 0.01,0.06 0.01,0.07 0.02,0.14 0,0.11 0,0.26 0,0.38 -0.01,1.22 0.06,2.51 0,3.72 -0.02,0.26 -0.06,0.38 -0.06,0.71l-0.05 1.4c0,0.23 0.01,0.53 -0.01,0.75 -0.13,1.15 0.03,0.73 -0.36,1.86 -0.3,0.86 -0.29,1.75 -0.22,2.63 0.15,1.78 0.81,1.46 0.8,2.92 0,0.33 0.07,0.41 0.06,0.7 -0.03,0.63 -0.06,1.31 -0.34,1.88 -0.24,0.51 -0.23,0.56 -0.37,1.09 -0.16,0.59 -0.09,2.15 0.14,2.63 0.52,1.1 1.25,0.7 1.11,3.21 -0.02,0.24 0.03,0.51 -0.03,0.73 -0.04,0.17 -0.04,0.08 -0.08,0.3 -0.05,0.28 -0.18,0.52 -0.29,0.79 -0.24,0.61 -0.22,1.34 -0.25,2.01 -0.01,0.25 -0.06,0.34 -0.06,0.65 0.01,1.13 -0.21,1.56 -0.21,2.76l-0.14 2.13c-0.24,0.92 -0.28,0.48 -0.48,1.73 -0.03,0.18 -0.06,0.46 -0.08,0.78l0 1.52c0.03,0.34 0.08,0.63 0.18,0.79 0.15,0.24 0.37,0.34 0.74,0.34 0.59,0 2.17,0.09 2.68,-0.07 0.15,-0.05 0.06,-0.04 0.24,-0.08 0.76,-0.18 0.88,-0.75 1.92,-1 0.2,-0.05 0.99,-0.09 1.18,-0.06 0.25,0.04 0.35,0.01 0.57,0.08 0.15,0.04 0.36,0.09 0.49,0.16 1.18,0.61 0.51,1.4 2.97,1.4 0.18,0 0.9,-0.16 1.02,-0.21 0.24,-0.12 0.53,-0.38 0.72,-0.58 0.91,-0.96 1.47,-0.83 2.79,-0.83 0.31,0 0.6,0.08 0.9,0.13 0.17,0.04 0.26,0.08 0.43,0.11 0.87,0.18 1.53,0.18 2.51,0.19 0.32,0.01 0.21,0.02 0.41,0.08 0.19,0.06 0.24,0.03 0.43,0.11l0.99 0.64c0.09,0.04 0.29,0.12 0.38,0.15 0.11,0.04 0.35,0.08 0.45,0.09 0.7,0.04 1.55,0.08 2.24,-0.05 0.2,-0.04 0.58,-0.23 0.78,-0.3 0.31,-0.11 0.59,-0.13 0.9,-0.19 0.29,-0.06 0.67,-0.01 1.02,-0.06 0.9,-0.14 1.04,0.11 1.79,-0.31 0.25,-0.13 0.45,-0.25 0.76,-0.32 0.77,-0.17 1.85,-0.3 2.59,0.07 0.93,0.45 1.08,1.61 2.33,1.61l0.05 0 0.66 0c0.66,-0.01 1.24,-0.1 1.8,-0.58 0.21,-0.18 0.37,-0.3 0.66,-0.41 0.21,-0.08 0.21,-0.06 0.44,-0.11 0.65,-0.13 0.89,-0.09 1.58,-0.09 0.48,0 1.62,0.23 2.14,0.35 0.36,0.08 2.03,0.08 2.36,-0.01 0.46,-0.12 0.89,-0.16 1.35,-0.32l1.5 -0.18c0.4,-0.01 1.38,0.14 1.75,0.3 0.67,0.29 0.73,0.56 1.6,0.56 0.31,0 0.45,0.06 0.81,0.06 0.41,0 0.62,-0.06 0.97,-0.06 0.92,0.01 1.48,-0.43 2.65,-0.43 1.82,0 1.43,-0.04 2.78,-0.3 0.29,-0.06 0.59,-0.13 0.89,-0.13l5.24 0c0.33,0 0.57,0.11 1.08,0.11 -0.03,-0.34 -0.33,-0.85 -0.32,-2.17 0,-0.47 -0.05,-0.74 -0.05,-1.19 -0.01,-0.45 -0.28,-1.06 -0.28,-1.61l-0.02 -1.21c0.05,-0.4 0.02,-0.82 0.02,-1.23 0,-0.33 0.05,-0.33 0.1,-0.55l0.17 -1.12c0,-0.98 0.1,-2.41 -0.07,-3.33 -0.11,-0.52 -0.03,-1.41 -0.07,-1.93l0.04 -1.28c-0.01,-0.34 0,-0.31 0.07,-0.57l0.2 -1.16 0 -2c-0.01,-0.89 0.16,-1.6 0.16,-2.54 0,-1.3 -0.1,-2.36 0.77,-3.22 0.31,-0.32 0.33,-0.39 0.49,-0.86 0.1,-0.27 0.14,-2.1 0.14,-2.56l0.06 -3.3c0,-0.41 -0.13,-0.93 -0.34,-1.28 -0.42,-0.72 -0.61,-0.64 -0.78,-1.65 -0.09,-0.48 0,-2.45 -0.1,-3.14 -0.12,-0.8 -0.08,-1.55 -0.08,-2.35 0,-0.26 0.01,-0.56 0,-0.81 -0.01,-0.13 -0.02,-0.22 -0.05,-0.33l-0.2 -1.05c-0.18,-0.96 -0.15,-2.64 0.38,-3.41 0.61,-0.91 0.57,-0.83 0.63,-1.91 0.03,-0.55 0.05,-0.34 0,-0.93 -0.03,-0.32 0.03,-0.68 -0.02,-1l-0.31 -1.32 0 -2.43c0,-0.61 0.6,-1.5 0.6,-2.43 0,-0.88 0.03,-1.77 -0.47,-2.51 -0.11,-0.16 -0.19,-0.23 -0.33,-0.37 -0.85,-0.83 -0.83,-3.03 -0.31,-4.06l0.22 -0.54c0.22,-0.82 0.07,-0.71 0.13,-1.48l0.11 -2.01c0,-0.31 -0.04,-0.73 -0.2,-0.88 -0.4,-0.38 -2.72,-0.35 -3.26,0.02 -0.5,0.34 -0.78,0.86 -1.3,1.18 -0.27,0.16 -0.61,0.22 -1.02,0.22l-5.03 0c-1.26,0 -2.39,-0.16 -3.62,-0.16 -1.8,0 -1.75,-0.65 -3.18,-0.65l-1.52 0c-1.95,0 -2.67,0.31 -4.84,0.04 -0.94,-0.11 -0.88,-0.14 -1.96,-0.14 -0.53,0 -1,-0.02 -1.45,-0.13 -0.22,-0.06 -0.21,-0.02 -0.42,-0.11 -0.41,-0.18 -0.62,-0.41 -1.03,-0.54 -0.18,-0.06 -0.27,-0.14 -0.39,-0.14l-2.17 0 -1.13 0.49c-0.72,0.4 -2.1,0.36 -2.98,0.37 -0.31,0 -0.4,0.06 -0.75,0.06 -0.43,-0.01 -0.45,0.1 -0.76,0.1z"/>
  <rect class="fil1" x="0.62" y="0.85" width="4.83" height="76.06"/>
  <rect class="fil1" x="278.61" y="0.85" width="4.83" height="76.06"/>
  <g id="_1773214337632">
   <path class="fil2" d="M81.22 74.64l0 0.44c0.58,0 1.41,-0.09 1.81,0.19 0.35,0.23 0.53,0.94 -0.21,1.35 -0.35,0.18 -0.47,0.23 -0.96,0.28 -0.49,0.06 -0.27,0.02 -0.58,0.23 0.02,1.17 1.13,1.95 1.94,1.95 0.73,0 1.18,-0.02 1.81,-0.63 0.19,-0.17 0.1,-0.16 0.35,-0.29 0,1.12 -0.18,1.35 0.82,1.09 0.24,-0.06 0.35,-0.13 0.53,-0.17 0,-0.67 0.01,-1.34 0,-2 -0.01,-1.84 0.52,-2.03 -0.67,-1.81 -0.31,0.06 -0.4,0.12 -0.62,0.24 0,0.87 0.16,1.6 -0.72,2.42 -0.16,0.15 -0.26,0.2 -0.47,0.28 -0.68,0.27 -1.34,-0.25 -1.35,-0.86 0.38,-0.09 0.71,0 1.3,-0.38 0.48,-0.3 0.97,-0.97 0.49,-1.52l-0.29 -0.26c0,-0.01 -0.01,-0.02 -0.02,-0.03 -0.01,-0.01 -0.02,-0.02 -0.03,-0.03 -0.01,-0.01 -0.04,-0.04 -0.05,-0.05l2.43 0c0.65,0 0.7,0.09 0.7,-0.33l0 -0.06c0,-0.16 -0.16,-0.21 -0.32,-0.21l-5.73 0c-0.12,0 -0.16,0.04 -0.16,0.16z"/>
   <path class="fil2" d="M45.89 78.1c0.04,-0.19 0.07,-0.36 0.18,-0.52 0.42,-0.62 1,-0.14 0.34,0.35 -0.12,0.09 -0.32,0.17 -0.52,0.17zm-4 -3.46c0,0.71 0.02,0.44 0.43,0.44l3.08 0c0.2,0 0.19,0.06 0.38,0.1 0,0.21 0.06,0.29 -0.2,0.46 -0.14,0.09 -0.03,0.03 -0.14,0.07l-0.31 0.12c-0.17,0.07 -0.14,0.04 -0.36,0.07 -0.52,0.08 -1.2,0.17 -1.63,0.37 -0.33,0.16 -0.71,0.35 -0.91,0.66 -0.13,0.21 -0.13,0.44 -0.07,0.68 0.06,0.26 0.21,0.38 0.39,0.53 0.32,0.27 0.78,0.46 1.24,0.54 0.19,0.03 0.64,0.05 0.78,0.09 0.41,0.12 -0.01,0.31 0.96,0.82 0.42,0.22 1.92,0.29 1.98,-0.35 -0.53,0 -0.68,0.01 -1.04,-0.16 -0.14,-0.06 -0.77,-0.41 -0.1,-0.44 1.87,-0.07 1.89,-2.22 -0.54,-1.94 -0.44,0.05 -0.75,0.18 -1.05,0.4 -0.26,0.2 -0.51,0.62 -0.3,1.06 -0.31,0 -0.31,-0.06 -0.47,-0.23 -0.67,-0.74 0.18,-1.35 0.83,-1.58 0.58,-0.2 2.51,-0.44 2.51,-0.95l0 -0.32c0.42,0.01 0.43,0.25 0.43,-0.44 0,-0.12 -0.04,-0.16 -0.16,-0.16l-5.57 0c-0.12,0 -0.16,0.04 -0.16,0.16z"/>
   <path class="fil2" d="M51.78 78.1c0.01,-0.18 0.08,-0.4 0.17,-0.52 0.5,-0.67 1.04,-0.05 0.25,0.41l-0.42 0.11zm0.61 1.68l-0.15 0c-0.42,-0.02 -0.86,-0.17 -1.2,-0.4 -0.25,-0.18 -0.3,-0.44 -0.47,-0.56 -0.11,-0.07 -0.68,-0.1 -0.89,-0.14 -1.36,-0.23 -2.43,-1.38 -1.04,-2.2 0.79,-0.47 1.03,-0.38 1.71,-0.51 0.11,-0.02 0.24,-0.06 0.31,-0.07 0.12,-0.02 0.17,-0.01 0.28,-0.04 0.56,-0.15 0.73,-0.3 0.73,-0.68 -0.2,-0.04 -0.24,-0.09 -0.49,-0.1l-1.62 0c-1.86,0 -1.62,0.15 -1.62,-0.54 0.32,-0.13 4.85,-0.06 5.57,-0.06 0.12,0 0.16,0.04 0.16,0.16 0,0.7 -0.03,0.44 -0.38,0.44 -0.15,0 -0.06,0.24 -0.06,0.43 -0.09,0.06 -0.18,0.14 -0.28,0.2 -0.27,0.17 -0.65,0.26 -0.96,0.34 -0.41,0.11 -0.77,0.11 -1.42,0.36 -1.93,0.72 -0.28,2.09 -0.25,1.72l0 -0.24c-0.01,-0.12 -0.01,-0.25 0.02,-0.36 0.22,-0.75 1.73,-1.08 2.64,-0.69 0.12,0.05 0.38,0.23 0.46,0.31 0.75,0.78 -0.87,1.75 -1.5,1.49 0.02,0.22 0.09,0.23 0.22,0.32 0.11,0.08 0.14,0.12 0.3,0.19 0.28,0.11 0.57,0.09 0.94,0.09l0 0.16c-0.18,0.05 -0.16,0.09 -0.34,0.2 -0.2,0.11 -0.43,0.17 -0.67,0.18z"/>
   <path class="fil2" d="M31.19 74.64c0,0.54 -0.09,0.44 0.92,0.44 0.1,0 0.87,-0.04 0.87,0.21 0,0.43 -0.47,0.51 -0.82,0.59 -0.27,0.06 -0.83,0.3 -0.86,0.55 0.08,0.36 0.51,0.61 0.92,0.65 -0.03,0.12 -0.02,0.09 -0.26,0.23 -1.51,0.84 -0.02,1.66 0.64,1.66 0.68,0 1.2,0.06 1.79,-0.32 0.47,-0.29 0.43,-0.42 0.69,-0.44l0 1.03c0.3,0.2 0.41,0.18 1.01,0.03 0.34,-0.08 0.3,-0.24 0.3,-0.23l0.04 -0.88c0,-0.35 0,-0.69 0,-1.03 0,-0.41 0.06,-0.61 0.06,-0.97 0,-0.34 0,-0.69 0,-1.03 -0.83,0 -0.41,0.01 -0.94,0.15 -0.47,0.12 -0.42,0.07 -0.41,0.99 0,0.38 -0.03,0.99 -0.2,1.26 -0.93,1.45 -2.77,0.73 -1.66,-0.15 0.13,-0.1 0.13,-0.07 0.3,-0.13 0.55,-0.18 0.86,-0.03 0.47,-0.61 -0.28,0 -1.07,0.23 -1.07,-0.27 0,-0.44 0.84,-0.43 1.26,-0.73 0.24,-0.17 0.07,-0.26 0.19,-0.51 0.15,-0.14 1.78,-0.03 2.23,-0.05 0.37,-0.01 0.26,-0.15 0.26,-0.54 -0.57,-0.14 -4.65,-0.06 -5.57,-0.06 -0.12,0 -0.16,0.04 -0.16,0.16z"/>
   <path class="fil2" d="M77.12 78.75c-0.17,-0.11 -0.17,-0.09 -0.23,-0.31 -0.21,-0.7 0.05,-1.66 0.55,-1.8l0.09 0.08c0.38,0.44 0.1,1.54 -0.12,1.84 -0.07,0.1 -0.17,0.16 -0.29,0.19zm-0.76 0.7c0.73,0 1.01,-0.11 1.48,-0.46 0.31,-0.23 0.73,-0.84 0.73,-1.16 0,-0.71 0.08,-0.72 -0.13,-1.11 -0.19,-0.35 -0.18,-0.26 -0.46,-0.4 0.13,-0.18 0.32,-0.22 0.56,-0.3 0.18,-0.07 0.51,-0.13 0.74,-0.13 0,0.76 -0.16,2.77 0,3.46 0.36,0.03 0.87,0.01 1.24,-0.17 0.15,-0.64 -0.03,-1.52 0.07,-2.25l0.09 -1.1c0.03,-0.43 -0.39,-0.7 -0.48,-0.7 -1.34,0 -2.15,0.29 -3.26,0.96 -0.31,0.19 -0.48,0.31 -0.76,0.54 -0.07,0.05 -0.09,0.07 -0.15,0.11l-0.32 0.34c-0.48,0.54 -0.9,1.3 -0.26,1.98 0.2,0.22 0.5,0.39 0.91,0.39z"/>
   <path class="fil2" d="M56.64 73.89c0,0.25 0.22,0.43 0.32,0.59 -0.75,0 -0.84,-0.02 -0.7,0.6l1.51 0.05c-0.35,0 -0.81,0.18 -1.02,0.32 0,0.91 -0.11,1.7 -0.11,2.65 0,1.17 -0.12,1.25 0.43,1.25 0.3,0 0.79,-0.21 0.97,-0.33l0.01 -3.07c0.04,-0.37 0.16,-0.67 -0.06,-0.87l0.49 0c0,-0.64 0.03,-0.55 -0.17,-0.59 -0.05,-0.01 -0.07,0 -0.12,0 -0.11,-0.01 -0.01,0.03 -0.09,-0.01 -0.05,-0.16 0.16,0.03 0.16,-0.16 0,-0.24 -0.42,-0.53 0.23,-1.01 0.97,-0.71 2.15,-0.27 3.08,0.24 0.71,0.38 0.99,0.63 1.3,0.8 0.14,0.08 1.09,0.02 1.33,0.02 0,-0.26 0.07,-0.15 -0.34,-0.46 -0.18,-0.13 -0.29,-0.22 -0.48,-0.34 -1.62,-1.03 -4.01,-1.74 -5.81,-0.7l-0.49 0.33c-0.14,0.13 -0.44,0.46 -0.44,0.69z"/>
   <path class="fil2" d="M29.3 75.51c0,0.77 -0.29,1.52 -0.64,1.95 -0.06,0.08 -0.24,0.27 -0.32,0.33 -0.88,0.64 -1.52,-0.54 -0.76,-1.35 0.54,-0.57 1.05,-0.34 1.4,-0.34 -0.02,-0.85 -1.8,-0.92 -2.69,-0.09 -1.52,1.41 -0.52,3.07 0.31,3.07 0.69,0 1.2,-0.06 1.74,-0.53 0.4,-0.35 0.84,-0.89 0.91,-0.93 0,1.39 -0.34,1.9 0.56,1.69 0.4,-0.09 0.51,-0.1 0.79,-0.29l0.02 -2.89c0.05,-0.36 0.05,-0.64 -0.02,-0.95 -0.47,0 -0.99,0.17 -1.3,0.33z"/>
   <path class="fil2" d="M71.06 77.29c0,-0.09 0.09,-0.37 0.13,-0.47 0.14,-0.39 0.62,-0.77 1.12,-0.77 0.23,0 0.25,0.05 0.54,0.05 -0.02,-0.82 -2,-1.11 -3.12,0.35 -0.88,1.17 -0.12,2.63 0.74,2.63 1.01,0 1.4,-0.19 2.18,-0.96 0.09,-0.1 0.12,-0.13 0.2,-0.23 0.09,-0.13 0.09,-0.18 0.21,-0.27 0.13,0.26 0,0.02 0,0.32 0,1.27 -0.13,1.56 0.57,1.38 0.34,-0.09 0.5,-0.11 0.78,-0.24 0,-0.33 0.01,-0.65 0,-0.98 0,-0.79 0.2,-2.29 0.06,-2.92 -0.3,0 -0.5,0.06 -0.75,0.12 -1.1,0.23 -0.18,0.88 -1.24,2.22 -0.69,0.87 -1.42,0.26 -1.42,-0.23z"/>
   <path class="fil2" d="M58.69 77.94c0,0.53 0.54,0.98 0.87,1.19 0.57,0.35 0.94,0.27 1.62,0.11l0 -0.16c-0.41,-0.1 -0.64,-0.45 -0.75,-0.82 -0.16,-0.49 -0.1,-0.8 0.13,-1.21 0.2,-0.36 0.47,-0.56 0.78,-0.78 0.19,-0.14 0.22,-0.18 0.47,-0.29l0.26 -0.13c0.25,-0.12 0.19,0 0.19,0.69 0,0.79 -0.05,1.41 -0.06,2.16 0,0.43 -0.03,0.72 0.4,0.67 0.28,-0.03 0.79,-0.09 0.92,-0.23 0.2,-0.22 0.09,-1.73 0.09,-2.17 0,-0.42 0.05,-0.67 0.05,-1.08 0.01,-0.19 0.03,-0.37 -0.04,-0.5 -0.41,-0.8 -2.74,0.34 -3.32,0.7 -0.55,0.35 -1.61,1.16 -1.61,1.85z"/>
   <path class="fil2" d="M67.23 73.89c0,0.17 0.04,0.21 0.12,0.31 0.08,0.1 0.13,0.18 0.2,0.28 -1.17,0 -0.92,-0.08 -0.92,0.6l2.27 0c0.21,0 0.17,-0.13 0.17,-0.44 0,-0.25 -0.27,-0.1 -0.38,-0.16 -0.04,-0.11 -0.06,0.04 0.05,-0.06 0,0 0.11,-0.01 0.11,-0.1 0,-0.23 -0.4,-0.63 0.19,-1 0.77,-0.47 1.41,-0.52 2.22,-0.17 0.86,0.36 0.81,0.33 1.72,0.88 0.84,0.51 0.08,0.34 1.81,0.34 0,-0.24 0.08,-0.16 -0.34,-0.46 -0.85,-0.6 -1.73,-1.12 -2.76,-1.35 -1.19,-0.27 -2.22,-0.31 -3.35,0.22 -0.41,0.19 -1.11,0.68 -1.11,1.11z"/>
   <path class="fil2" d="M23.41 73.94c0,0.25 0.13,0.27 0.27,0.54 -0.82,0 -0.92,-0.11 -0.92,0.44 0,0.12 0.04,0.16 0.17,0.16l2.27 0c0,-0.64 0.06,-0.66 -0.44,-0.54 0.1,-0.25 -0.02,0.02 0.11,-0.12 0.07,-0.08 0.11,0.11 0.11,-0.21 0,-0.26 -0.11,0.09 -0.11,-0.48 0,-0.34 1.01,-0.81 1.57,-0.81 0.78,0 1.94,0.66 2.64,1.08 0.85,0.51 0.44,0.37 1.9,0.37 -0.03,-0.29 -0.31,-0.44 -0.59,-0.6 -0.84,-0.49 -1.48,-0.97 -2.53,-1.2 -0.65,-0.14 -0.74,-0.19 -1.59,-0.19 -0.73,0 -1.3,0.15 -1.8,0.4 -0.42,0.21 -1.06,0.59 -1.06,1.16z"/>
   <path class="fil2" d="M23.36 79.18c0.21,0.15 0.06,0.17 0.43,0.17 0.3,0 0.79,-0.21 0.97,-0.33 0,-0.65 0,-1.3 0,-1.94 0,-0.73 0.06,-1.25 0.06,-1.95 -0.38,0 -1.12,0.06 -1.3,0.33 -0.06,0.09 -0.08,1.02 -0.1,1.19 -0.05,0.44 0.02,1.59 -0.06,2.53z"/>
   <path class="fil2" d="M67.34 75.45c0,1.16 -0.11,2.37 -0.11,3.68 0,0.47 1.27,0.04 1.36,-0.1l0.04 -0.49c0.01,-0.23 0,-0.48 0,-0.71 0,-0.45 0,-0.9 0,-1.35 0,-0.53 0.06,-0.86 0.06,-1.35 -0.5,0 -0.94,0.05 -1.35,0.32z"/>
   <path class="fil2" d="M37.57 75.45c0,0.4 -0.06,0.55 -0.06,0.92 0,0.59 0.03,1.94 -0.03,2.46 -0.03,0.25 0.03,0.22 0.03,0.46 0.54,0.13 0.89,-0.02 1.35,-0.27 -0.08,-0.96 0.06,-2.89 0.06,-3.89 -0.73,0 -0.36,-0.02 -0.89,0.14 -0.33,0.09 -0.21,0.02 -0.46,0.18z"/>
   <path class="fil2" d="M54.26 77.45l0 1.68c0,0.45 1.05,0.1 1.35,-0.11 0,-0.65 0,-1.3 0,-1.94 0,-0.7 0.06,-1.23 0.06,-1.95 -0.68,0 -0.42,-0.02 -1.02,0.17 -0.26,0.09 -0.31,0.21 -0.33,0.53 -0.04,0.57 -0.06,1.04 -0.06,1.62z"/>
   <path class="fil2" d="M75.06 74.64c0,0.31 -0.04,0.44 0.16,0.44l5.73 0c0.27,0 0.22,-0.6 -0.05,-0.6l-5.68 0c-0.12,0 -0.16,0.04 -0.16,0.16z"/>
   <path class="fil2" d="M69.23 74.54c0,0.25 -0.08,0.54 0.16,0.54l5.35 0c0.21,0 0.16,-0.16 0.16,-0.54 -0.98,0 -1.77,-0.06 -2.75,-0.06 -0.47,0 -2.64,-0.05 -2.92,0.06z"/>
   <path class="fil2" d="M25.36 74.7l0.05 0.38 5.62 0 0 -0.54c-0.98,0 -1.77,-0.06 -2.76,-0.06l-2.7 0c-0.12,0 -0.21,0.09 -0.21,0.22z"/>
   <path class="fil2" d="M58.64 74.64l0 0.44 5.46 0c0.19,0 0.16,-0.12 0.16,-0.38 0,-0.32 -0.57,-0.09 -1.18,-0.18 -0.52,-0.07 -3.61,-0.04 -4.28,-0.04 -0.13,0 -0.16,0.04 -0.16,0.16z"/>
   <path class="fil2" d="M37.51 75.08l1.46 0c0.27,0 0.24,0.05 0.49,0.05 0.03,-0.16 0.17,-0.65 -0.11,-0.65l-2.11 0c-0.22,0 -0.2,0.24 -0.17,0.44 0.07,0.37 0.11,0.16 0.44,0.16z"/>
   <path class="fil2" d="M84.3 72.7c0,0.89 1.46,0.77 1.46,0.05 0,-0.35 -0.33,-0.56 -0.68,-0.59l-0.2 0c-0.31,0.03 -0.58,0.21 -0.58,0.54z"/>
   <path class="fil2" d="M53.83 74.54c0,0.76 -0.11,0.54 2.21,0.54 0.19,-0.78 0.06,-0.6 -1.94,-0.6 -0.09,0 -0.2,0.03 -0.27,0.06z"/>
  </g>
  <g id="_1773214309568">
   <path class="fil3" d="M47.13 40.02l-0.05 0.05 1.13 0.97c0.5,0.41 0.57,0.58 0.93,0.96l0.62 0.73c0.13,0.14 0.17,0.22 0.28,0.37l1.05 1.65c0.1,0.18 0.13,0.3 0.22,0.49l0.51 1.16 0.49 1.83c0.04,0.25 0.1,0.32 0.11,0.54 0.02,0.27 0.02,0.43 0.05,0.65 0.05,0.34 0.1,1.53 0.05,1.93 -0.01,0.16 -0.07,0.45 -0.09,0.61 -0.02,0.23 0.01,0.39 -0.04,0.61l-0.28 1.39c-0.04,0.17 -0.05,0.15 -0.09,0.29 -0.06,0.22 -0.07,0.33 -0.13,0.52 -0.03,0.11 -0.04,0.13 -0.07,0.25 -0.04,0.11 -0.06,0.15 -0.1,0.28 -0.06,0.16 -0.1,0.33 -0.16,0.49 -0.21,0.64 -0.52,1.28 -0.79,1.86l-0.8 1.58c-0.44,0.79 -1.19,1.95 -1.71,2.66l-2.07 2.63c-0.4,0.52 -2.17,2.29 -2.64,2.76 -0.24,0.24 -0.48,0.4 -0.7,0.67 0,0.09 -0.02,0.07 0.07,0.07 0.21,-0.16 0.35,-0.27 0.55,-0.44 0.2,-0.15 0.35,-0.26 0.56,-0.41l4.14 -3.32c1.92,-1.57 3.81,-3.24 5.99,-4.43l0.64 -0.34c0.24,-0.1 0.47,-0.2 0.73,-0.3l1.55 -0.45c1.07,-0.23 2.43,0 3.46,0.42 0.98,0.41 1.13,0.57 1.93,1.04 0.23,0.14 0.37,0.3 0.6,0.42l0.04 -0.04c-0.11,-0.21 -0.33,-0.38 -0.51,-0.56 -0.21,-0.2 -0.32,-0.36 -0.48,-0.6 -0.1,-0.14 -0.14,-0.18 -0.23,-0.31 -0.8,-1.23 -1.53,-2.93 -1.92,-4.35l-0.32 -1.3c-0.02,-0.08 -0.04,-0.11 -0.07,-0.2 -0.03,-0.15 -0.04,-0.37 -0.06,-0.48 -0.04,-0.19 -0.09,-0.3 -0.11,-0.43 -0.03,-0.18 0,-0.32 -0.04,-0.51 -0.14,-0.79 -0.07,-0.88 -0.16,-1.51 -0.18,-1.21 -0.06,-1.52 -0.03,-2.56l0.11 -1.56c0.02,-0.15 0.08,-0.29 0.1,-0.44l1.01 -4.23c0.02,-0.05 0.03,-0.07 0.05,-0.12l2 -4.05c0.25,-0.43 1.06,-1.52 1.39,-1.85 0.13,-0.12 0.45,-0.49 0.51,-0.61l-0.04 -0.07c-0.17,0.15 -0.29,0.28 -0.44,0.44l-1.76 1.7c-0.17,0.16 -0.23,0.29 -0.41,0.46l-2.62 2.67c-0.89,0.9 -1.82,1.69 -2.94,2.3 -0.42,0.22 -0.85,0.35 -1.3,0.49 -0.36,0.1 -1.07,0.21 -1.55,0.17l-1.13 -0.17c-1.56,-0.41 -1.39,-0.41 -2.87,-1.12l-1.86 -1.17c-0.14,-0.11 -0.14,-0.15 -0.3,-0.18z"/>
   <path class="fil3" d="M52.32 37.96c0,0.5 0.07,0.99 0.39,1.39 1.41,1.79 3.88,0.83 3.88,-1.17 0,-0.91 -0.47,-1.62 -1.16,-1.98 -1.56,-0.8 -3.11,0.53 -3.11,1.76z"/>
   <path class="fil4" d="M47.08 40.07l0.05 -0.05c-0.09,-0.13 -0.28,-0.25 -0.42,-0.34 -0.18,-0.12 -0.28,-0.26 -0.5,-0.31 0.1,0.15 0.05,0.07 0.2,0.18 0.09,0.07 0.1,0.1 0.2,0.17 0.19,0.15 0.28,0.23 0.47,0.35z"/>
   <path class="fil4" d="M42.16 68.59c0.16,-0.04 0.64,-0.43 0.76,-0.57 -0.09,0 -0.07,0.02 -0.07,-0.07 -0.14,0.1 -0.18,0.17 -0.34,0.29 -0.15,0.11 -0.26,0.21 -0.35,0.35z"/>
   <path class="fil4" d="M64.31 34.43l0.04 0.07c0.18,-0.1 0.13,-0.08 0.25,-0.25 0.13,-0.16 0.14,-0.08 0.2,-0.29l-0.49 0.47z"/>
   <path class="fil5" d="M63.07 60.21l0.12 0.11c0.07,0.06 0.07,0.07 0.15,0.12 -0.05,-0.19 -0.08,-0.19 -0.23,-0.27l-0.04 0.04z"/>
   <path class="fil6" d="M46.16 39.31c-0.08,-0.12 -0.01,-0.07 -0.16,-0.11 0.08,0.12 0,0.07 0.16,0.11z"/>
   <polygon class="fil7" points="46,39.2 46,39.15 45.93,39.19 "/>
   <polygon class="fil8" points="42.11,68.65 42.05,68.65 42.1,68.71 "/>
   <polygon class="fil7" points="64.8,33.96 64.85,33.96 64.81,33.9 "/>
   <polygon class="fil5" points="46.21,39.37 46.16,39.31 "/>
   <polygon class="fil6" points="42.16,68.59 42.11,68.65 "/>
  </g>
  <g id="_1773214305120">
   <path class="fil9" d="M60.37 18.78c0.57,0.15 1.23,1.54 1.5,2.12 0.29,0.62 0.68,1.15 1.37,1.33 0.27,0.08 0.41,0.17 0.75,0.17 1.63,0 1.83,0.13 1.62,-0.26l-0.22 -0.39c-0.08,-0.13 -0.14,-0.23 -0.22,-0.37 -0.1,-0.14 -0.17,-0.21 -0.26,-0.33 -0.84,-1.07 -1.55,-1.45 -2.68,-1.97l-0.84 -0.29c-0.46,-0.07 -0.7,-0.17 -1.02,-0.17l0 0.16z"/>
   <path class="fil9" d="M43.78 14.84c-0.01,-0.41 -0.18,-1.19 -0.33,-1.56l-0.09 -0.24c-0.1,-0.26 -0.22,-0.55 -0.36,-0.78 -0.53,-0.86 -0.76,-1.12 -1.53,-1.81 -0.23,-0.21 -1.07,-0.83 -1.42,-0.85 0.02,0.26 0.21,0.39 0.33,0.75 0.04,0.14 0.06,0.29 0.11,0.43l0.21 1.52c-0.01,0.58 0.27,1.18 0.7,1.51 0.68,0.51 0.67,0.49 1.47,0.8l0.91 0.23z"/>
   <path class="fil9" d="M35.57 24.07c0,0.66 0.18,1.26 0.53,1.8 0.13,0.21 0.69,1 0.93,1.07 0.26,-0.19 0.45,-0.99 0.52,-1.2 0.28,-0.81 0.43,-2.09 0.19,-2.92 -0.06,-0.22 -0.14,-0.78 -0.27,-1.14 -0.1,-0.31 -0.39,-0.79 -0.44,-1.01l-0.22 0c0,0.97 -0.54,1.75 -0.93,2.53 -0.13,0.24 -0.31,0.61 -0.31,0.87z"/>
   <path class="fil9" d="M69.28 17.7c0.33,0 0.55,-0.16 0.79,-0.29 1.02,-0.54 1.65,-1.3 2.27,-2.22 0.43,-0.63 0.61,-1.28 0.81,-2 0.07,-0.26 0.08,-0.16 0.08,-0.52 -0.34,0.09 -0.3,0.37 -0.97,0.72 -1.17,0.62 -2.16,0.81 -2.61,1.65l-0.16 0.38c-0.3,1.16 -0.21,1.2 -0.21,2.28z"/>
   <path class="fil9" d="M48.86 20.62c0,0.12 0.06,0.31 0.09,0.45 0.02,0.18 0.01,0.32 0.03,0.51l0.2 0.87c0.24,0 0.2,-0.02 0.35,-0.13l0.56 -0.52c0.42,-0.5 0.76,-0.74 1.17,-1.54 0.32,-0.65 0.72,-1.82 0.73,-2.5 0.01,-0.36 0,-0.73 0,-1.09l-0.16 0c-0.01,0.33 -0.22,0.46 -0.4,0.68 -0.56,0.65 -1.86,1.28 -2.21,1.9 -0.19,0.32 -0.36,1.16 -0.36,1.37z"/>
   <path class="fil9" d="M48.21 9.16l0.1 0.98c0.11,0.36 0.04,0.24 0.08,0.46 0.08,0.31 0.14,0.11 0.15,0.45 0.22,-0.01 0.2,-0.06 0.4,-0.24l0.18 -0.15c0.82,-0.68 1.76,-2.06 1.95,-3.12 0.12,-0.61 0.38,-1.55 0.22,-2.21l-0.16 0c-0.1,0.4 -0.49,0.7 -0.74,0.93 -0.45,0.4 -0.56,0.43 -0.95,0.73 -0.17,0.12 -0.31,0.22 -0.46,0.35 -0.53,0.47 -0.77,1.05 -0.77,1.82z"/>
   <path class="fil9" d="M69.55 30.67c0.15,0.04 0.71,0.52 1.17,0.77 0.51,0.28 1.64,0.73 2.23,0.74l0.92 0.05c0.2,-0.01 0.18,-0.05 0.43,-0.05 0.16,-0.01 0.34,0.01 0.49,0 0.32,-0.01 0.52,-0.16 0.87,-0.16l0 0c-0.03,-0.36 -0.22,-0.13 -0.88,-0.59l-1.22 -0.99c-0.74,-0.74 -1.15,-0.79 -2.33,-0.64 -0.31,0.04 -1.07,0.37 -1.37,0.53 -0.28,0.15 -0.29,0.09 -0.31,0.34z"/>
   <path class="fil9" d="M71.17 18.46c0,0.51 -0.01,0.55 -0.13,1 -0.04,0.17 -0.02,0.26 -0.05,0.43 -0.14,0.68 -0.38,1.26 -0.04,1.98 0.1,0.23 0.22,0.41 0.37,0.6 0.31,0.37 0.63,0.64 1.02,0.93 0.18,0.13 0.37,0.33 0.62,0.35 0.23,-0.45 0.2,-2.04 0.1,-2.58l-0.25 -0.89c-0.23,-0.69 -0.53,-1.2 -0.94,-1.81 -0.1,-0.15 -0.22,-0.29 -0.34,-0.43 -0.12,-0.15 -0.22,-0.32 -0.47,-0.34 0.03,0.28 0.11,0.41 0.11,0.76z"/>
  </g>
  <g id="_1773214305280">
   <path class="fil10" d="M41.13 31.48c-0.3,-0.03 -0.52,-0.38 -0.75,-0.54 -0.63,-0.45 -1.23,-0.96 -1.89,-1.36 -1.78,-1.06 -1.85,-1.05 -3.77,-1.69 -0.28,-0.1 -0.48,-0.07 -0.77,-0.15 -0.32,-0.08 -3.22,-0.22 -3.46,-0.1l0 0c0.03,0.26 0.13,0.2 0.42,0.28l1.71 0.51c2.04,0.53 2.63,0.79 4.54,2.05 1.6,1.05 2.94,2.53 4.26,3.9 0.14,0.15 0.17,0.23 0.32,0.38l1.21 1.33c1.6,1.73 0.82,1.74 2.42,0.49 0.15,-0.12 0.22,-0.24 0.41,-0.3 -0.01,-0.37 -0.4,-0.58 -0.64,-0.82l-2.17 -2.2 0.45 -2.52c0.04,-0.17 0.13,-0.37 0.21,-0.49 0.1,-0.14 0.22,-0.32 0.33,-0.44 0.07,-0.07 0.1,-0.11 0.18,-0.19 0.42,-0.45 0.88,-0.84 1.36,-1.23 0.15,-0.12 0.27,-0.21 0.43,-0.33 0.42,-0.34 0.98,-0.56 1.45,-0.82l0.84 -0.46c0.15,-0.07 0.02,0 0.14,-0.07l0.44 -0.26c0.81,-0.42 1.65,-0.84 2.43,-1.31l1.92 -1.05c0.83,-0.45 1.78,-1.15 2.05,-2.11 0.02,-0.08 0.03,-0.19 0.03,-0.34 -0.33,0.01 -0.55,0.48 -0.83,0.68l-0.22 0.16c-0.03,0.02 -0.07,0.05 -0.1,0.06 -0.21,0.14 -0.43,0.29 -0.63,0.4l-0.74 0.34c-0.14,0.06 -0.21,0.1 -0.34,0.14 -1.42,0.48 -2.9,0.85 -4.27,1.47 -0.69,0.31 -1.43,0.63 -2.09,1.03l-1.91 1.23 0.86 -4.6c0.04,-0.21 0.08,-0.29 0.1,-0.43 0.03,-0.18 0.03,-0.3 0.06,-0.43l0.26 -1.31c0.11,-0.67 0.57,-2.83 0.62,-3.38l0.24 -1.22c0.12,-0.31 0.34,-0.22 0.85,-0.71 0.18,-0.18 0.39,-0.31 0.42,-0.61 -0.16,0.01 -0.17,0.02 -0.29,0.09l-0.79 0.39c0,-1 0.8,-3.17 0.38,-4.1 -0.1,-0.22 -0.24,-0.34 -0.39,-0.38l-0.26 0c-0.18,0.04 -0.35,0.18 -0.48,0.39 -0.3,0.5 -0.48,1.33 -0.49,1.93 -0.02,0.49 -0.17,1.02 -0.07,1.48 0.09,0.45 0.08,0.28 -0.03,0.64l-0.47 2.01c-0.03,0.13 -0.02,0.21 -0.06,0.33 -0.03,0.14 -0.06,0.14 -0.1,0.33 -0.03,0.14 -0.04,0.23 -0.07,0.36l-1.1 4.62c-0.3,1.09 -0.56,2.62 -0.88,3.72 -0.15,0.5 -0.68,3.17 -0.88,3.6l-0.25 0.46c-0.19,0.43 -0.19,0.67 -0.15,1.15z"/>
   <path class="fil10" d="M67.34 21.16l0 0.86c0,0.38 -0.08,0.56 -0.11,0.87 -0.05,0.61 -0.04,0.4 -0.14,0.88 -0.04,0.17 -0.01,0.29 -0.03,0.46l-0.6 3.88c-0.08,0.64 -0.15,0.37 -0.15,1.26 1.32,0 0.6,0.18 -0.46,1.6 -0.43,0.57 -0.46,0.39 -0.46,0.78 0.14,0.03 0.27,0.15 0.4,0.24 0.33,0.23 0.94,0.77 1.22,0.84 0.22,-0.15 0.31,-0.4 0.47,-0.61 0.17,-0.23 0.3,-0.41 0.45,-0.64 0.3,-0.44 0.59,-0.85 0.9,-1.31l1.79 -2.64c0.54,-0.73 1.33,-1.05 2.2,-1.42l2.44 -1.08c0.15,-0.06 0.21,-0.1 0.37,-0.17l0.55 -0.25c0.15,-0.11 0.1,0.03 0.13,-0.2 -0.1,-0.05 -1.46,0.15 -1.72,0.23 -0.18,0.05 -0.46,0.04 -0.62,0.08 -1.35,0.26 -0.82,0.07 -2.23,0.53 -0.83,0.27 -1.61,0.49 -2.23,1.23 -0.11,0.13 -0.2,0.24 -0.31,0.38l-0.67 0.73c0.05,-0.23 0.1,-1.01 0.1,-1.29 0.01,-0.48 0.11,-0.79 0.11,-1.3 0,-0.75 0.07,-2.97 -0.06,-3.55 -0.12,-0.47 -0.09,-1.12 -0.43,-2.11 -0.49,-1.43 -0.76,-1.46 -1.57,-2.54 -0.26,-0.35 -0.27,-0.48 -0.53,-0.5 0,0.28 0.09,0.36 0.14,0.56 0.44,1.59 0.72,1.8 0.95,3.53 0.03,0.22 0.1,0.37 0.1,0.67z"/>
  </g>
  <path class="fil11" d="M118.93 31.03c-3.68,0 -6.64,-0.96 -8.89,-2.88 -2.24,-1.93 -3.37,-4.47 -3.37,-7.63 0,-3.52 1.12,-6.35 3.37,-8.49 2.24,-2.13 5.2,-3.2 8.88,-3.2 1.31,0 2.67,0.16 4.08,0.47 1.42,0.31 2.66,0.72 3.7,1.24 -0.19,0.67 -0.34,1.25 -0.45,1.75 -0.12,0.49 -0.23,1.09 -0.35,1.79l-0.34 0.02c-0.75,-1.09 -1.63,-1.91 -2.65,-2.46 -1.02,-0.55 -2.18,-0.82 -3.47,-0.82 -2.36,0 -4.23,0.87 -5.63,2.62 -1.39,1.75 -2.09,4.11 -2.09,7.09 0,2.62 0.68,4.69 2.04,6.22 1.37,1.53 3.2,2.3 5.51,2.3 1.01,0 2.01,-0.12 2.97,-0.35l0 0c0.2,-1.1 0.31,-2.33 0.31,-3.69 0,-1.47 -0.12,-2.77 -0.36,-3.91l0 0c0.76,0.02 1.61,0.03 2.57,0.03 0.97,0 1.82,-0.03 2.57,-0.11 -0.08,0.37 -0.15,0.81 -0.17,1.32 -0.03,0.52 -0.05,1.36 -0.05,2.53l0 0.78c0,1.31 0.02,2.24 0.05,2.78 0.02,0.54 0.08,0.99 0.16,1.35l0 0c-2.41,0.84 -5.2,1.26 -8.39,1.25zm25.63 0c-3.51,0 -6.33,-0.96 -8.47,-2.89 -2.13,-1.93 -3.2,-4.48 -3.2,-7.65 0,-3.51 1.07,-6.33 3.2,-8.46 2.14,-2.13 4.96,-3.2 8.47,-3.2 3.52,0 6.34,0.97 8.47,2.9 2.13,1.93 3.2,4.49 3.2,7.66 0,3.5 -1.07,6.31 -3.2,8.44 -2.13,2.13 -4.95,3.2 -8.47,3.2zm0 -1.98c2.03,0 3.65,-0.87 4.83,-2.6 1.2,-1.74 1.79,-4.08 1.79,-7.03 0,-2.63 -0.59,-4.72 -1.79,-6.28 -1.18,-1.55 -2.8,-2.32 -4.83,-2.32 -2.03,0 -3.63,0.86 -4.83,2.59 -1.19,1.74 -1.79,4.09 -1.79,7.04 0,2.64 0.6,4.73 1.79,6.28 1.2,1.55 2.8,2.32 4.83,2.32zm17.82 -2.21c0.05,-2.07 0.07,-4.37 0.06,-6.9 0,-2.57 -0.02,-4.88 -0.06,-6.92 -0.03,-1.05 -0.06,-1.84 -0.09,-2.35 -0.03,-0.51 -0.07,-1.01 -0.12,-1.49l2.51 0.08 0 0 5.62 -0.08c1.96,0 3.49,0.54 4.6,1.63 1.1,1.08 1.65,2.59 1.65,4.52 0,1.9 -0.68,3.39 -2.05,4.45 -1.37,1.06 -3.27,1.59 -5.71,1.59l-1.83 -0.03 0 0c-0.01,2 0,3.84 0.04,5.49 0.03,1.07 0.07,1.85 0.1,2.36 0.02,0.52 0.07,1.01 0.12,1.49 -0.75,-0.05 -1.59,-0.08 -2.52,-0.08 -0.95,0 -1.79,0.03 -2.53,0.08 0.05,-0.48 0.09,-0.98 0.12,-1.49 0.03,-0.51 0.06,-1.29 0.09,-2.35zm4.56 -7.44l0 0 0.85 -0.01c1.2,0 2.11,-0.39 2.75,-1.18 0.64,-0.78 0.96,-1.9 0.96,-3.35 0,-1.19 -0.27,-2.09 -0.8,-2.73 -0.55,-0.64 -1.31,-0.97 -2.3,-0.97l-1.37 0.04 0 0c-0.05,2.36 -0.08,5.09 -0.09,8.2zm14.6 7.44c0.91,-2.03 1.89,-4.31 2.96,-6.87 1.79,-4.28 3.21,-7.88 4.25,-10.8 0.47,0.05 0.87,0.08 1.21,0.08 0.34,0 0.74,-0.03 1.2,-0.08 1.07,2.9 2.46,6.49 4.2,10.77 1.04,2.57 1.99,4.86 2.86,6.9 0.51,1.2 0.88,2.05 1.11,2.56 0.23,0.51 0.44,0.94 0.63,1.28 -0.82,-0.05 -1.74,-0.08 -2.79,-0.08 -1.02,0 -1.94,0.03 -2.76,0.08 -0.3,-1.12 -0.53,-1.94 -0.69,-2.45 -0.16,-0.51 -0.32,-0.97 -0.48,-1.4l-0.89 -2.34 0 0c-1.25,-0.15 -2.59,-0.23 -4.01,-0.25 -1.23,-0.02 -2.33,0.07 -3.32,0.28l0 0c-0.32,0.78 -0.62,1.55 -0.89,2.31 -0.1,0.26 -0.23,0.64 -0.37,1.16 -0.15,0.51 -0.4,1.41 -0.74,2.69 -0.49,-0.05 -1.05,-0.08 -1.67,-0.08 -0.61,0 -1.15,0.03 -1.64,0.08 0.18,-0.33 0.39,-0.75 0.64,-1.26 0.24,-0.51 0.64,-1.37 1.19,-2.58zm7.18 -11.69c-0.6,1.43 -1.22,2.98 -1.88,4.65l-0.91 2.34 0 0c0.83,0.09 1.73,0.13 2.69,0.12 0.99,-0.01 1.94,-0.06 2.84,-0.14l0 0 -0.05 -0.12c-0.96,-2.49 -1.85,-4.77 -2.69,-6.85l0 0zm16.37 15.7c0.05,-0.48 0.09,-0.98 0.12,-1.49 0.03,-0.51 0.06,-1.3 0.09,-2.35 0.04,-2.07 0.06,-4.4 0.06,-7 0,-2.59 -0.02,-4.92 -0.06,-6.99 -0.03,-1.05 -0.06,-1.84 -0.09,-2.35 -0.03,-0.51 -0.07,-1.01 -0.12,-1.49 0.73,0.05 1.57,0.08 2.5,0.08 0.95,0 1.79,-0.03 2.53,-0.08 -0.1,0.61 -0.17,1.48 -0.2,2.61 -0.04,1.13 -0.06,3.08 -0.06,5.84l0 10.97 0 0 0.22 0.02 0.88 0c1.24,0 2.47,-0.03 3.7,-0.1 1.23,-0.07 2.05,-0.14 2.45,-0.22 -0.06,0.37 -0.09,0.8 -0.09,1.28 0,0.48 0.03,0.91 0.09,1.28 -0.9,-0.07 -1.97,-0.13 -3.2,-0.18 -1.23,-0.05 -2.21,-0.08 -2.95,-0.08l-1.1 0 0 0c-0.8,0 -1.66,0.02 -2.58,0.07 -0.92,0.05 -1.65,0.11 -2.19,0.18zm16.9 -4.01c0.91,-2.03 1.89,-4.31 2.96,-6.87 1.79,-4.28 3.21,-7.88 4.25,-10.8 0.47,0.05 0.87,0.08 1.21,0.08 0.34,0 0.74,-0.03 1.2,-0.08 1.07,2.9 2.46,6.49 4.2,10.77 1.04,2.57 1.99,4.86 2.86,6.9 0.51,1.2 0.88,2.05 1.11,2.56 0.23,0.51 0.44,0.94 0.62,1.28 -0.81,-0.05 -1.73,-0.08 -2.78,-0.08 -1.02,0 -1.94,0.03 -2.76,0.08 -0.3,-1.12 -0.53,-1.94 -0.69,-2.45 -0.16,-0.51 -0.32,-0.97 -0.48,-1.4l-0.89 -2.34 0 0c-1.25,-0.15 -2.59,-0.23 -4.01,-0.25 -1.23,-0.02 -2.33,0.07 -3.31,0.28l0 0c-0.33,0.78 -0.64,1.55 -0.9,2.31 -0.1,0.26 -0.23,0.64 -0.38,1.16 -0.14,0.51 -0.39,1.41 -0.73,2.69 -0.49,-0.05 -1.05,-0.08 -1.67,-0.08 -0.6,0 -1.15,0.03 -1.64,0.08 0.18,-0.33 0.39,-0.75 0.64,-1.26 0.24,-0.51 0.64,-1.37 1.19,-2.58zm7.18 -11.69c-0.6,1.43 -1.22,2.98 -1.88,4.65l-0.91 2.34 0 0c0.84,0.09 1.73,0.13 2.69,0.12 0.99,-0.01 1.94,-0.06 2.84,-0.14l0 0 -0.05 -0.12c-0.96,-2.49 -1.85,-4.77 -2.69,-6.85l0 0zm18.8 11.68c0.03,1.06 0.06,1.85 0.09,2.36 0.03,0.52 0.07,1.01 0.12,1.49 -0.4,-0.05 -0.85,-0.08 -1.35,-0.08 -0.52,0 -0.97,0.03 -1.36,0.08 0.05,-0.48 0.09,-0.97 0.12,-1.49 0.03,-0.51 0.06,-1.29 0.09,-2.35 0.04,-2.08 0.06,-4.4 0.06,-6.96 0,-2.54 -0.02,-4.84 -0.06,-6.87 -0.03,-1.06 -0.06,-1.85 -0.09,-2.36 -0.03,-0.51 -0.07,-1.01 -0.12,-1.48 0.44,0.05 0.94,0.07 1.51,0.07 0.55,0 1.05,-0.02 1.49,-0.07l0 0c1.94,2.45 4.49,5.4 7.66,8.84l5.59 5.98 0 0 0 0 0.02 -4.01c0,-2.57 -0.02,-4.88 -0.06,-6.95 -0.02,-1.05 -0.05,-1.83 -0.09,-2.34 -0.03,-0.52 -0.07,-1.02 -0.12,-1.51 0.39,0.05 0.85,0.08 1.36,0.08 0.5,0 0.96,-0.03 1.35,-0.08 -0.05,0.48 -0.09,0.98 -0.12,1.49 -0.03,0.51 -0.06,1.3 -0.09,2.35 -0.04,2.07 -0.06,4.39 -0.06,6.97 0,4.28 0.05,7.85 0.15,10.71 -0.53,-0.06 -0.98,-0.1 -1.36,-0.1 -0.39,0 -0.85,0.04 -1.39,0.1 -2.47,-3.03 -5.68,-6.69 -9.65,-11.01l-3.74 -4 0 0 0 0 -0.02 4.2c0,2.56 0.02,4.88 0.07,6.94z"/>
  <path class="fil11" d="M117.41 56.51c-0.32,-0.88 -0.76,-1.52 -1.32,-1.91 -0.57,-0.4 -1.32,-0.6 -2.25,-0.6 -0.92,0 -1.68,0.26 -2.28,0.78 -0.61,0.52 -0.91,1.19 -0.91,1.98 0,0.82 0.3,1.52 0.9,2.09 0.59,0.57 1.72,1.25 3.4,2.04 1.68,0.8 2.91,1.71 3.69,2.75 0.79,1.04 1.18,2.27 1.18,3.69 0,1.98 -0.73,3.62 -2.18,4.93 -1.45,1.3 -3.28,1.95 -5.46,1.95 -0.91,0 -1.83,-0.11 -2.76,-0.32 -0.94,-0.22 -1.83,-0.54 -2.66,-0.94 0.22,-0.74 0.4,-1.37 0.54,-1.91 0.13,-0.54 0.26,-1.18 0.39,-1.93l0.66 -0.02c0.37,1.13 0.89,1.95 1.56,2.47 0.68,0.52 1.57,0.78 2.67,0.78 1.03,0 1.9,-0.3 2.59,-0.89 0.69,-0.6 1.04,-1.35 1.04,-2.26 0,-0.83 -0.32,-1.55 -0.95,-2.15 -0.63,-0.59 -1.84,-1.3 -3.63,-2.15 -1.61,-0.75 -2.8,-1.63 -3.56,-2.64 -0.75,-0.99 -1.13,-2.19 -1.13,-3.57 0,-1.91 0.66,-3.5 1.97,-4.77 1.31,-1.26 2.96,-1.9 4.93,-1.9 0.9,0 1.76,0.11 2.6,0.34 0.83,0.22 1.7,0.58 2.6,1.05 -0.23,0.58 -0.42,1.08 -0.56,1.51 -0.14,0.43 -0.3,0.95 -0.48,1.56l-0.59 0.04zm30.19 13.63c-0.19,0.52 -0.33,0.97 -0.43,1.37 -0.1,0.39 -0.2,0.86 -0.3,1.41 -0.89,0.41 -1.83,0.73 -2.82,0.96 -0.99,0.22 -1.98,0.33 -2.96,0.33 -3.63,0 -6.56,-0.96 -8.77,-2.89 -2.22,-1.92 -3.33,-4.47 -3.33,-7.64 0,-3.51 1.11,-6.33 3.33,-8.46 2.21,-2.14 5.14,-3.21 8.77,-3.21 1.21,0 2.37,0.11 3.49,0.33 1.1,0.22 2.11,0.53 3.02,0.94 -0.19,0.67 -0.34,1.25 -0.46,1.75 -0.11,0.5 -0.23,1.1 -0.35,1.79l-0.34 0.02c-0.64,-0.94 -1.39,-1.64 -2.26,-2.12 -0.87,-0.48 -1.85,-0.72 -2.94,-0.72 -2.2,0 -3.95,0.82 -5.26,2.47 -1.3,1.65 -1.95,3.88 -1.95,6.68 0,2.79 0.68,5 2.04,6.63 1.37,1.63 3.2,2.45 5.51,2.45 1.1,0 2.1,-0.19 3.01,-0.56 0.9,-0.38 1.76,-0.97 2.58,-1.76l0.42 0.23zm10.47 -0.12c0.04,-2.07 0.06,-4.37 0.06,-6.9 0,-2.57 -0.02,-4.88 -0.06,-6.91 -0.03,-1.06 -0.07,-1.85 -0.1,-2.36 -0.02,-0.51 -0.06,-1.01 -0.12,-1.49 0.75,0.05 1.59,0.08 2.52,0.08 0.95,0 1.79,-0.03 2.53,-0.08 -0.05,0.48 -0.09,0.98 -0.12,1.49 -0.03,0.51 -0.06,1.3 -0.09,2.36 -0.04,1.43 -0.06,2.98 -0.05,4.64l0 0c1.45,0.15 3.02,0.23 4.72,0.24 1.72,0 3.3,-0.09 4.76,-0.26l0 0c0,-1.65 -0.02,-3.19 -0.07,-4.62 -0.03,-1.06 -0.06,-1.85 -0.09,-2.36 -0.03,-0.51 -0.07,-1.01 -0.12,-1.49 0.75,0.05 1.58,0.08 2.52,0.08 0.94,0 1.79,-0.03 2.53,-0.08 -0.05,0.48 -0.09,0.98 -0.12,1.49 -0.03,0.51 -0.06,1.3 -0.09,2.36 -0.04,2.05 -0.06,4.35 -0.06,6.9 0,2.56 0.02,4.86 0.06,6.91 0.03,1.06 0.06,1.84 0.09,2.35 0.03,0.52 0.07,1.01 0.12,1.49 -0.74,-0.05 -1.58,-0.07 -2.52,-0.07 -0.94,0 -1.78,0.02 -2.53,0.07 0.05,-0.48 0.09,-0.97 0.12,-1.49 0.03,-0.51 0.06,-1.29 0.09,-2.35l0.08 -6.32 0 0c-1.46,-0.16 -3.03,-0.25 -4.74,-0.25 -1.71,0 -3.29,0.09 -4.75,0.25l0 0c-0.03,2.34 -0.01,4.45 0.05,6.32 0.03,1.06 0.06,1.84 0.09,2.35 0.03,0.52 0.07,1.01 0.12,1.49 -0.74,-0.05 -1.58,-0.07 -2.52,-0.07 -0.94,0 -1.78,0.02 -2.53,0.07 0.06,-0.48 0.1,-0.98 0.12,-1.49 0.03,-0.51 0.07,-1.29 0.1,-2.35zm41.19 4.19c-3.51,0 -6.34,-0.96 -8.47,-2.89 -2.14,-1.92 -3.2,-4.48 -3.2,-7.65 0,-3.51 1.06,-6.33 3.2,-8.46 2.13,-2.13 4.96,-3.2 8.47,-3.2 3.52,0 6.34,0.97 8.47,2.9 2.13,1.94 3.2,4.49 3.2,7.66 0,3.5 -1.07,6.32 -3.2,8.45 -2.13,2.12 -4.95,3.19 -8.47,3.19zm0 -1.98c2.03,0 3.64,-0.87 4.83,-2.6 1.19,-1.73 1.78,-4.08 1.78,-7.03 0,-2.63 -0.59,-4.72 -1.78,-6.27 -1.19,-1.56 -2.8,-2.33 -4.83,-2.33 -2.03,0 -3.63,0.86 -4.83,2.6 -1.19,1.73 -1.79,4.08 -1.79,7.04 0,2.63 0.6,4.72 1.79,6.27 1.2,1.55 2.8,2.32 4.83,2.32zm32.74 1.98c-3.51,0 -6.33,-0.96 -8.47,-2.89 -2.13,-1.92 -3.2,-4.48 -3.2,-7.65 0,-3.51 1.07,-6.33 3.2,-8.46 2.14,-2.13 4.96,-3.2 8.47,-3.2 3.52,0 6.34,0.97 8.47,2.9 2.13,1.94 3.2,4.49 3.2,7.66 0,3.5 -1.07,6.32 -3.2,8.45 -2.13,2.12 -4.95,3.19 -8.47,3.19zm0 -1.98c2.03,0 3.64,-0.87 4.83,-2.6 1.19,-1.73 1.79,-4.08 1.79,-7.03 0,-2.63 -0.6,-4.72 -1.79,-6.27 -1.19,-1.56 -2.8,-2.33 -4.83,-2.33 -2.03,0 -3.63,0.86 -4.83,2.6 -1.19,1.73 -1.79,4.08 -1.79,7.04 0,2.63 0.6,4.72 1.79,6.27 1.2,1.55 2.8,2.32 4.83,2.32zm22.52 1.8c0.05,-0.48 0.09,-0.97 0.12,-1.49 0.03,-0.51 0.06,-1.3 0.09,-2.35 0.05,-2.07 0.07,-4.4 0.07,-7 0,-2.59 -0.02,-4.92 -0.07,-6.98 -0.03,-1.06 -0.06,-1.85 -0.09,-2.36 -0.03,-0.51 -0.07,-1.01 -0.12,-1.49 0.74,0.05 1.57,0.08 2.51,0.08 0.94,0 1.78,-0.03 2.53,-0.08 -0.11,0.61 -0.18,1.48 -0.21,2.61 -0.04,1.13 -0.05,3.08 -0.05,5.84l0 10.98 0 0 0.21 0.01 0.88 0c1.24,0 2.47,-0.03 3.7,-0.1 1.23,-0.06 2.05,-0.14 2.45,-0.22 -0.06,0.37 -0.09,0.81 -0.09,1.28 0,0.48 0.03,0.91 0.09,1.29 -0.9,-0.08 -1.97,-0.13 -3.2,-0.19 -1.23,-0.05 -2.21,-0.07 -2.95,-0.07l-1.09 0 0 0c-0.81,0 -1.67,0.02 -2.59,0.06 -0.92,0.05 -1.65,0.11 -2.19,0.18z"/>
  <path class="fil2" d="M108.09 34.74l156.14 0 0 14.38 -156.14 0 0 -14.38zm11.4 10.44c0.02,0.49 0.03,0.85 0.05,1.09 0.01,0.24 0.03,0.47 0.05,0.69 -0.18,-0.03 -0.39,-0.04 -0.62,-0.04 -0.24,0 -0.45,0.01 -0.63,0.04 0.02,-0.22 0.04,-0.45 0.06,-0.69 0.01,-0.23 0.02,-0.6 0.04,-1.08 0.02,-0.96 0.03,-2.03 0.03,-3.22 0,-1.17 -0.01,-2.23 -0.03,-3.17 -0.02,-0.48 -0.03,-0.85 -0.04,-1.08 -0.02,-0.24 -0.04,-0.47 -0.06,-0.69 0.21,0.02 0.44,0.04 0.7,0.04 0.25,0 0.48,-0.02 0.69,-0.04l0 0c0.89,1.13 2.07,2.49 3.53,4.08l2.58 2.76 0 0 0 0 0.01 -1.85c0,-1.19 -0.01,-2.25 -0.03,-3.21 -0.01,-0.48 -0.03,-0.84 -0.04,-1.08 -0.01,-0.24 -0.03,-0.47 -0.06,-0.69 0.19,0.02 0.39,0.03 0.63,0.03 0.23,0 0.44,-0.01 0.62,-0.03 -0.02,0.22 -0.04,0.45 -0.05,0.69 -0.01,0.23 -0.03,0.59 -0.04,1.08 -0.02,0.96 -0.03,2.03 -0.03,3.21 0,1.98 0.02,3.63 0.07,4.95 -0.25,-0.03 -0.45,-0.05 -0.63,-0.05 -0.18,0 -0.39,0.02 -0.64,0.05 -1.14,-1.4 -2.62,-3.09 -4.45,-5.08l-1.73 -1.85 0 0 0 0 -0.01 1.94c0,1.18 0.01,2.25 0.03,3.2zm18.87 0.01c0.42,-0.94 0.87,-1.99 1.37,-3.17 0.82,-1.98 1.48,-3.64 1.96,-4.99 0.22,0.03 0.4,0.04 0.56,0.04 0.15,0 0.34,-0.01 0.55,-0.04 0.49,1.34 1.14,3 1.94,4.97 0.48,1.19 0.92,2.25 1.31,3.19 0.24,0.55 0.41,0.94 0.52,1.18 0.11,0.23 0.2,0.43 0.29,0.59 -0.38,-0.03 -0.81,-0.04 -1.29,-0.04 -0.47,0 -0.9,0.01 -1.27,0.04 -0.14,-0.52 -0.25,-0.9 -0.32,-1.13 -0.07,-0.24 -0.15,-0.45 -0.22,-0.65l-0.41 -1.08 0 0c-0.58,-0.06 -1.2,-0.1 -1.85,-0.11 -0.57,-0.01 -1.08,0.03 -1.53,0.12l0 0c-0.15,0.36 -0.29,0.72 -0.42,1.07 -0.04,0.12 -0.1,0.3 -0.17,0.54 -0.07,0.23 -0.18,0.65 -0.34,1.24 -0.22,-0.03 -0.48,-0.04 -0.77,-0.04 -0.28,0 -0.53,0.01 -0.75,0.04 0.08,-0.15 0.18,-0.35 0.29,-0.59 0.11,-0.23 0.3,-0.63 0.55,-1.18zm3.31 -5.4c-0.27,0.66 -0.56,1.38 -0.86,2.15l-0.42 1.08 0 0c0.38,0.04 0.79,0.06 1.24,0.05 0.45,0 0.89,-0.02 1.31,-0.06l0 0 -0.03 -0.06c-0.44,-1.15 -0.85,-2.2 -1.24,-3.16l0 0zm17.42 2.73l0 -4.55 0 0c-0.49,0.01 -0.98,0.02 -1.47,0.05 -0.57,0.03 -0.95,0.07 -1.14,0.1 0.03,-0.17 0.04,-0.37 0.04,-0.58 0,-0.22 -0.01,-0.41 -0.04,-0.59 0.3,0.04 0.79,0.07 1.47,0.1 0.68,0.03 1.32,0.05 1.93,0.05l0.26 0 0.25 0c0.61,0 1.25,-0.02 1.93,-0.05 0.68,-0.03 1.17,-0.06 1.47,-0.1 -0.03,0.18 -0.05,0.37 -0.05,0.59 0,0.21 0.02,0.41 0.05,0.58 -0.19,-0.03 -0.57,-0.07 -1.14,-0.1 -0.49,-0.03 -0.98,-0.04 -1.47,-0.05l0 0 0 4.55c0,1.07 0,1.9 0.02,2.49 0.01,0.59 0.04,1.24 0.09,1.95 -0.34,-0.03 -0.72,-0.04 -1.15,-0.04 -0.43,0 -0.82,0.01 -1.16,0.04 0.05,-0.71 0.08,-1.36 0.09,-1.95 0.02,-0.59 0.02,-1.42 0.02,-2.49zm15.52 2.67c0.02,-0.96 0.03,-2.02 0.03,-3.19 0,-1.18 -0.01,-2.25 -0.03,-3.19 -0.01,-0.48 -0.03,-0.84 -0.04,-1.08 -0.02,-0.24 -0.03,-0.47 -0.06,-0.69 0.34,0.02 0.73,0.03 1.16,0.03 0.44,0 0.83,-0.01 1.17,-0.03 -0.02,0.22 -0.04,0.45 -0.05,0.69 -0.02,0.23 -0.03,0.59 -0.05,1.08 -0.02,0.95 -0.03,2.01 -0.03,3.18 0,1.19 0.01,2.25 0.03,3.2 0.02,0.48 0.03,0.85 0.05,1.08 0.01,0.24 0.03,0.47 0.05,0.69 -0.34,-0.03 -0.73,-0.04 -1.16,-0.04 -0.44,0 -0.83,0.01 -1.17,0.04 0.03,-0.23 0.04,-0.46 0.06,-0.7 0.01,-0.23 0.03,-0.59 0.04,-1.07zm18.62 1.93c-1.62,0 -2.92,-0.45 -3.9,-1.33 -0.99,-0.89 -1.48,-2.07 -1.48,-3.54 0,-1.61 0.49,-2.91 1.48,-3.9 0.98,-0.98 2.28,-1.47 3.9,-1.47 1.63,0 2.93,0.44 3.91,1.34 0.98,0.89 1.48,2.06 1.48,3.53 0,1.61 -0.5,2.91 -1.48,3.89 -0.98,0.99 -2.28,1.48 -3.91,1.48zm0 -0.92c0.94,0 1.68,-0.39 2.23,-1.2 0.55,-0.79 0.82,-1.88 0.82,-3.24 0,-1.21 -0.27,-2.18 -0.82,-2.89 -0.55,-0.72 -1.29,-1.08 -2.23,-1.08 -0.93,0 -1.67,0.4 -2.23,1.2 -0.55,0.8 -0.82,1.88 -0.82,3.25 0,1.22 0.27,2.18 0.82,2.89 0.56,0.72 1.3,1.07 2.23,1.07zm17.53 -1.02c0.01,0.49 0.02,0.85 0.04,1.09 0.01,0.24 0.03,0.47 0.05,0.69 -0.18,-0.03 -0.39,-0.04 -0.62,-0.04 -0.24,0 -0.44,0.01 -0.63,0.04 0.03,-0.22 0.05,-0.45 0.06,-0.69 0.01,-0.23 0.03,-0.6 0.04,-1.08 0.02,-0.96 0.03,-2.03 0.03,-3.22 0,-1.17 -0.01,-2.23 -0.03,-3.17 -0.01,-0.48 -0.03,-0.85 -0.04,-1.08 -0.01,-0.24 -0.03,-0.47 -0.06,-0.69 0.21,0.02 0.44,0.04 0.7,0.04 0.26,0 0.49,-0.02 0.69,-0.04l0 0c0.9,1.13 2.07,2.49 3.53,4.08l2.58 2.76 0 0 0 0 0.01 -1.85c0,-1.19 -0.01,-2.25 -0.03,-3.21 -0.01,-0.48 -0.02,-0.84 -0.04,-1.08 -0.01,-0.24 -0.03,-0.47 -0.05,-0.69 0.18,0.02 0.39,0.03 0.62,0.03 0.24,0 0.45,-0.01 0.63,-0.03 -0.02,0.22 -0.04,0.45 -0.06,0.69 -0.01,0.23 -0.03,0.59 -0.04,1.08 -0.02,0.96 -0.03,2.03 -0.03,3.21 0,1.98 0.02,3.63 0.07,4.95 -0.24,-0.03 -0.45,-0.05 -0.63,-0.05 -0.17,0 -0.39,0.02 -0.64,0.05 -1.13,-1.4 -2.62,-3.09 -4.45,-5.08l-1.73 -1.85 0 0 0 0 0 1.94c0,1.18 0.01,2.25 0.03,3.2zm18.86 0.01c0.42,-0.94 0.88,-1.99 1.37,-3.17 0.83,-1.98 1.48,-3.64 1.96,-4.99 0.22,0.03 0.4,0.04 0.56,0.04 0.15,0 0.34,-0.01 0.55,-0.04 0.49,1.34 1.14,3 1.94,4.97 0.48,1.19 0.92,2.25 1.32,3.19 0.23,0.55 0.4,0.94 0.51,1.18 0.11,0.23 0.21,0.43 0.29,0.59 -0.38,-0.03 -0.8,-0.04 -1.28,-0.04 -0.48,0 -0.9,0.01 -1.28,0.04 -0.14,-0.52 -0.24,-0.9 -0.32,-1.13 -0.07,-0.24 -0.14,-0.45 -0.22,-0.65l-0.41 -1.08 0 0c-0.58,-0.06 -1.19,-0.1 -1.85,-0.11 -0.57,-0.01 -1.07,0.03 -1.53,0.12l0 0c-0.15,0.36 -0.29,0.72 -0.41,1.07 -0.05,0.12 -0.11,0.3 -0.17,0.54 -0.07,0.23 -0.19,0.65 -0.35,1.24 -0.22,-0.03 -0.48,-0.04 -0.76,-0.04 -0.28,0 -0.54,0.01 -0.76,0.04 0.08,-0.15 0.18,-0.35 0.29,-0.59 0.12,-0.23 0.3,-0.63 0.55,-1.18zm3.32 -5.4c-0.28,0.66 -0.57,1.38 -0.87,2.15l-0.42 1.08 0 0c0.38,0.04 0.8,0.06 1.24,0.05 0.46,0 0.89,-0.02 1.31,-0.06l0 0 -0.02 -0.06c-0.45,-1.15 -0.86,-2.2 -1.24,-3.16l0 0zm15.75 7.25c0.03,-0.23 0.05,-0.45 0.06,-0.69 0.01,-0.24 0.03,-0.6 0.04,-1.09 0.02,-0.95 0.03,-2.03 0.03,-3.22 0,-1.2 -0.01,-2.27 -0.03,-3.23 -0.01,-0.49 -0.03,-0.85 -0.04,-1.08 -0.01,-0.24 -0.03,-0.47 -0.06,-0.69 0.34,0.02 0.73,0.03 1.16,0.03 0.43,0 0.82,-0.01 1.17,-0.03 -0.05,0.28 -0.08,0.68 -0.1,1.2 -0.02,0.52 -0.02,1.42 -0.02,2.7l0 5.06 0 0 0.1 0.01 0.4 0c0.57,0 1.14,-0.02 1.71,-0.05 0.57,-0.03 0.94,-0.06 1.13,-0.1 -0.03,0.17 -0.04,0.37 -0.04,0.59 0,0.22 0.01,0.42 0.04,0.59 -0.42,-0.03 -0.91,-0.06 -1.48,-0.08 -0.57,-0.03 -1.02,-0.04 -1.36,-0.04l-0.5 0 0 0c-0.37,0 -0.77,0.01 -1.19,0.03 -0.43,0.02 -0.77,0.05 -1.02,0.09z"/>
 </g>
</svg>
